<svg xmlns="http://www.w3.org/2000/svg" xmlns:xlink="http://www.w3.org/1999/xlink" xmlns:lucid="lucid" width="2277.5" height="3321.22"><g transform="translate(797.35880879977 -112.77777777777783)" lucid:page-tab-id="0_0"><path d="M-1000 0h2500v3500h-2500z" fill="#f2f3f5"/><path d="M709.33 197.78c0 46.4-36.4 84-81.33 84-44.92 0-81.33-37.6-81.33-84s36.4-84 81.33-84c44.92 0 81.33 37.6 81.33 84z" stroke="#000" stroke-width="2" fill="#fff"/><use xlink:href="#a" transform="matrix(1,0,0,1,551.6666666666666,118.77777777777783) translate(35.14501953125 88.44921875)"/><path d="M622.38 373.2a16.03 16.03 0 0 1 11.24 0L836.16 449a2.25 2.25 0 0 1 0 4.2L633.62 529a16.03 16.03 0 0 1-11.24 0l-202.54-75.8a2.25 2.25 0 0 1 0-4.2z" stroke="#000" stroke-width="2" fill="#fff"/><use xlink:href="#b" transform="matrix(1,0,0,1,419.2222222222224,376.1111111111111) translate(76.846796875 84.3671875)"/><use xlink:href="#c" transform="matrix(1,0,0,1,419.2222222222224,376.1111111111111) translate(146.4425 84.3671875)"/><use xlink:href="#d" transform="matrix(1,0,0,1,419.2222222222224,376.1111111111111) translate(206.21203125 84.3671875)"/><path d="M628 284.28v69.43" stroke="#3a414a" stroke-width="3" stroke-linejoin="round" fill="none"/><path d="M628 282.78l1.48-.02v1.56h-2.96v-1.6z" stroke="#3a414a" stroke-width=".05" fill="#3a414a"/><path d="M628 368.2l-7.5-13h15z" stroke="#3a414a" stroke-width="3" fill="#3a414a"/><path d="M390.67 668.32a6 6 0 0 1 6-6h462.66a6 6 0 0 1 6 6v68a6 6 0 0 1-6 6H396.67a6 6 0 0 1-6-6z" stroke="#000" stroke-width="2" fill="#fff"/><use xlink:href="#e" transform="matrix(1,0,0,1,395.6666666666667,667.3197248139738) translate(69.66357421875 44.328125)"/><use xlink:href="#f" transform="matrix(1,0,0,1,395.6666666666667,667.3197248139738) translate(176.74853515625 44.328125)"/><use xlink:href="#g" transform="matrix(1,0,0,1,395.6666666666667,667.3197248139738) translate(253.09814453125 44.328125)"/><use xlink:href="#h" transform="matrix(1,0,0,1,395.6666666666667,667.3197248139738) translate(284.58251953125 44.328125)"/><use xlink:href="#i" transform="matrix(1,0,0,1,395.6666666666667,667.3197248139738) translate(375.45556640625 44.328125)"/><path d="M628 532.53v111.3" stroke="#3a414a" stroke-width="3" stroke-linejoin="round" fill="none"/><path d="M626.78 530.98l1.22.05 1.22-.05.25-.02v1.6h-2.95v-1.6z" stroke="#3a414a" stroke-width=".05" fill="#3a414a"/><path d="M628 658.32l-7.5-13h15z" stroke="#3a414a" stroke-width="3" fill="#3a414a"/><path d="M625.23 860.92a16.03 16.03 0 0 1 11.24 0L839 936.72a2.25 2.25 0 0 1 0 4.2l-202.53 75.8a16.03 16.03 0 0 1-11.24 0l-202.54-75.8a2.25 2.25 0 0 1 0-4.2z" stroke="#000" stroke-width="2" fill="#fff"/><use xlink:href="#j" transform="matrix(1,0,0,1,422.0677431839709,863.8206966834538) translate(126.02208984375 84.3671875)"/><use xlink:href="#k" transform="matrix(1,0,0,1,422.0677431839709,863.8206966834538) translate(196.92541015625 84.3671875)"/><path d="M628.03 744.82l.86 45.06 1.45 51.54" stroke="#3a414a" stroke-width="3" stroke-linejoin="round" fill="none"/><path d="M629.5 744.83l-2.95.06-.02-1.58h2.95z" stroke="#3a414a" stroke-width=".05" fill="#3a414a"/><path d="M630.76 855.9l-7.86-12.77 15-.42z" stroke="#3a414a" stroke-width="3" fill="#3a414a"/><path d="M417.07 1141.32a6 6 0 0 1 6-6h462.66a6 6 0 0 1 6 6v68a6 6 0 0 1-6 6H423.07a6 6 0 0 1-6-6z" stroke="#000" stroke-width="2" fill="#fff"/><use xlink:href="#l" transform="matrix(1,0,0,1,422.0677431839709,1140.3216685529337) translate(131.013671875 44.328125)"/><use xlink:href="#m" transform="matrix(1,0,0,1,422.0677431839709,1140.3216685529337) translate(181.388671875 44.328125)"/><use xlink:href="#n" transform="matrix(1,0,0,1,422.0677431839709,1140.3216685529337) translate(241.84375 44.328125)"/><use xlink:href="#o" transform="matrix(1,0,0,1,422.0677431839709,1140.3216685529337) translate(317.203125 44.328125)"/><path d="M630.85 1020.24v96.6" stroke="#3a414a" stroke-width="3" stroke-linejoin="round" fill="none"/><path d="M629.63 1018.7l1.22.03 1.2-.04.27-.04v1.62h-2.95v-1.62z" stroke="#3a414a" stroke-width=".05" fill="#3a414a"/><path d="M630.85 1131.32l-7.5-13h15z" stroke="#3a414a" stroke-width="3" fill="#3a414a"/><path d="M648.78 1333.93a16.03 16.03 0 0 1 11.24 0l202.54 75.8a2.25 2.25 0 0 1 0 4.2l-202.54 75.8a16.03 16.03 0 0 1-11.24 0l-202.54-75.8a2.25 2.25 0 0 1 0-4.2z" stroke="#000" stroke-width="2" fill="#fff"/><use xlink:href="#p" transform="matrix(1,0,0,1,445.6232987395266,1336.8226404224138) translate(129.9766796875 84.3671875)"/><use xlink:href="#q" transform="matrix(1,0,0,1,445.6232987395266,1336.8226404224138) translate(154.0723828125 84.3671875)"/><use xlink:href="#r" transform="matrix(1,0,0,1,445.6232987395266,1336.8226404224138) translate(181.405390625 84.3671875)"/><path d="M654.4 1217.82v96.6" stroke="#3a414a" stroke-width="3" stroke-linejoin="round" fill="none"/><path d="M655.88 1217.86h-2.95v-1.54h2.95z" stroke="#3a414a" stroke-width=".05" fill="#3a414a"/><path d="M654.4 1328.9l-7.5-12.98h15z" stroke="#3a414a" stroke-width="3" fill="#3a414a"/><path d="M648.78 1630.13a16.03 16.03 0 0 1 11.24 0l202.54 75.8a2.25 2.25 0 0 1 0 4.2l-202.54 75.8a16.03 16.03 0 0 1-11.24 0l-202.54-75.8a2.25 2.25 0 0 1 0-4.2z" stroke="#000" stroke-width="2" fill="#fff"/><use xlink:href="#p" transform="matrix(1,0,0,1,445.6232987395266,1633.0252198627827) translate(149.6036328125 84.3671875)"/><use xlink:href="#s" transform="matrix(1,0,0,1,445.6232987395266,1633.0252198627827) translate(173.6993359375 84.3671875)"/><use xlink:href="#t" transform="matrix(1,0,0,1,445.6232987395266,1633.0252198627827) translate(222.7286328125 84.3671875)"/><use xlink:href="#u" transform="matrix(1,0,0,1,445.6232987395266,1633.0252198627827) translate(255.114375 84.3671875)"/><path d="M648.78 1926.33a16.03 16.03 0 0 1 11.24 0l202.54 75.8a2.25 2.25 0 0 1 0 4.2l-202.54 75.8a16.03 16.03 0 0 1-11.24 0l-202.54-75.8a2.25 2.25 0 0 1 0-4.2z" stroke="#000" stroke-width="2" fill="#fff"/><use xlink:href="#p" transform="matrix(1,0,0,1,445.6232987395266,1929.2277993031516) translate(153.2598828125 84.3671875)"/><use xlink:href="#v" transform="matrix(1,0,0,1,445.6232987395266,1929.2277993031516) translate(177.3555859375 84.3671875)"/><use xlink:href="#w" transform="matrix(1,0,0,1,445.6232987395266,1929.2277993031516) translate(219.0723828125 84.3671875)"/><use xlink:href="#u" transform="matrix(1,0,0,1,445.6232987395266,1929.2277993031516) translate(251.458125 84.3671875)"/><path d="M1002.98 1377.82a6 6 0 0 1 6-6h462.66a6 6 0 0 1 6 6v68a6 6 0 0 1-6 6h-462.67a6 6 0 0 1-6-6z" stroke="#000" stroke-width="2" fill="#fff"/><use xlink:href="#x" transform="matrix(1,0,0,1,1007.9752022256307,1376.8226404224138) translate(139.51318359375 44.328125)"/><use xlink:href="#y" transform="matrix(1,0,0,1,1007.9752022256307,1376.8226404224138) translate(243.04345703125 44.328125)"/><use xlink:href="#z" transform="matrix(1,0,0,1,1007.9752022256307,1376.8226404224138) translate(274.45166015625 44.328125)"/><use xlink:href="#i" transform="matrix(1,0,0,1,1007.9752022256307,1376.8226404224138) translate(305.60595703125 44.328125)"/><path d="M1002.98 1674.03a6 6 0 0 1 6-6h462.66a6 6 0 0 1 6 6v68a6 6 0 0 1-6 6h-462.67a6 6 0 0 1-6-6z" stroke="#000" stroke-width="2" fill="#fff"/><use xlink:href="#A" transform="matrix(1,0,0,1,1007.9752022256307,1673.0252198627827) translate(146.86376953125 44.328125)"/><use xlink:href="#B" transform="matrix(1,0,0,1,1007.9752022256307,1673.0252198627827) translate(215.25341796875 44.328125)"/><use xlink:href="#C" transform="matrix(1,0,0,1,1007.9752022256307,1673.0252198627827) translate(239.34912109375 44.328125)"/><use xlink:href="#D" transform="matrix(1,0,0,1,1007.9752022256307,1673.0252198627827) translate(301.45458984375 44.328125)"/><path d="M1002.98 1970.23a6 6 0 0 1 6-6h462.66a6 6 0 0 1 6 6v68a6 6 0 0 1-6 6h-462.67a6 6 0 0 1-6-6z" stroke="#000" stroke-width="2" fill="#fff"/><use xlink:href="#E" transform="matrix(1,0,0,1,1007.9752022256307,1969.2277993031516) translate(121.57470703125 44.328125)"/><use xlink:href="#F" transform="matrix(1,0,0,1,1007.9752022256307,1969.2277993031516) translate(176.86279296875 44.328125)"/><use xlink:href="#z" transform="matrix(1,0,0,1,1007.9752022256307,1969.2277993031516) translate(200.85693359375 44.328125)"/><use xlink:href="#G" transform="matrix(1,0,0,1,1007.9752022256307,1969.2277993031516) translate(232.01123046875 44.328125)"/><use xlink:href="#H" transform="matrix(1,0,0,1,1007.9752022256307,1969.2277993031516) translate(259.20458984375 44.328125)"/><use xlink:href="#I" transform="matrix(1,0,0,1,1007.9752022256307,1969.2277993031516) translate(318.35205078125 44.328125)"/><path d="M417.07 2205.1a6 6 0 0 1 6-6h462.66a6 6 0 0 1 6 6v68a6 6 0 0 1-6 6H423.07a6 6 0 0 1-6-6z" stroke="#000" stroke-width="2" fill="#fff"/><use xlink:href="#J" transform="matrix(1,0,0,1,422.06774318397095,2204.085522018566) translate(150.78662109375 25.4609375)"/><use xlink:href="#q" transform="matrix(1,0,0,1,422.06774318397095,2204.085522018566) translate(182.19482421875 25.4609375)"/><use xlink:href="#K" transform="matrix(1,0,0,1,422.06774318397095,2204.085522018566) translate(209.52783203125 25.4609375)"/><use xlink:href="#L" transform="matrix(1,0,0,1,422.06774318397095,2204.085522018566) translate(44.84423828125 63.211718749999996)"/><use xlink:href="#M" transform="matrix(1,0,0,1,422.06774318397095,2204.085522018566) translate(111.77392578125 63.211718749999996)"/><use xlink:href="#N" transform="matrix(1,0,0,1,422.06774318397095,2204.085522018566) translate(214.60595703125 63.211718749999996)"/><use xlink:href="#O" transform="matrix(1,0,0,1,422.06774318397095,2204.085522018566) translate(249.11181640625 63.211718749999996)"/><use xlink:href="#P" transform="matrix(1,0,0,1,422.06774318397095,2204.085522018566) translate(295.89404296875 63.211718749999996)"/><path d="M648.63 2375.97a20.98 20.98 0 0 1 11.54 0l268.24 76.7a1.72 1.72 0 0 1 0 3.3l-268.23 76.7a20.98 20.98 0 0 1-11.54 0l-268.24-76.7a1.72 1.72 0 0 1 0-3.3z" stroke="#000" stroke-width="2" fill="#fff"/><use xlink:href="#Q" transform="matrix(1,0,0,1,379.6232987395267,2379.3155326008564) translate(138.52404296875 65.6171875)"/><use xlink:href="#R" transform="matrix(1,0,0,1,379.6232987395267,2379.3155326008564) translate(162.51818359375 65.6171875)"/><use xlink:href="#S" transform="matrix(1,0,0,1,379.6232987395267,2379.3155326008564) translate(209.59240234375 65.6171875)"/><use xlink:href="#T" transform="matrix(1,0,0,1,379.6232987395267,2379.3155326008564) translate(279.50548828125 65.6171875)"/><use xlink:href="#B" transform="matrix(1,0,0,1,379.6232987395267,2379.3155326008564) translate(318.81017578125 65.6171875)"/><use xlink:href="#U" transform="matrix(1,0,0,1,379.6232987395267,2379.3155326008564) translate(342.90587890625 65.6171875)"/><use xlink:href="#V" transform="matrix(1,0,0,1,379.6232987395267,2379.3155326008564) translate(206.73595703125 103.36796874999999)"/><use xlink:href="#W" transform="matrix(1,0,0,1,379.6232987395267,2379.3155326008564) translate(276.72521484375 103.36796874999999)"/><use xlink:href="#X" transform="matrix(1,0,0,1,379.6232987395267,2379.3155326008564) translate(308.71740234375 103.36796874999999)"/><path d="M1002.98 2420.32a6 6 0 0 1 6-6h462.66a6 6 0 0 1 6 6v68a6 6 0 0 1-6 6h-462.67a6 6 0 0 1-6-6z" stroke="#000" stroke-width="2" fill="#fff"/><use xlink:href="#E" transform="matrix(1,0,0,1,1007.9752022256307,2419.3155326008564) translate(143.80419921875 44.328125)"/><use xlink:href="#F" transform="matrix(1,0,0,1,1007.9752022256307,2419.3155326008564) translate(199.09228515625 44.328125)"/><use xlink:href="#R" transform="matrix(1,0,0,1,1007.9752022256307,2419.3155326008564) translate(223.08642578125 44.328125)"/><use xlink:href="#z" transform="matrix(1,0,0,1,1007.9752022256307,2419.3155326008564) translate(270.16064453125 44.328125)"/><use xlink:href="#i" transform="matrix(1,0,0,1,1007.9752022256307,2419.3155326008564) translate(301.31494140625 44.328125)"/><path d="M654.4 1493.24v117.38" stroke="#3a414a" stroke-width="3" stroke-linejoin="round" fill="none"/><path d="M653.18 1491.7l1.22.04 1.22-.05.26-.03v1.6h-2.95v-1.6z" stroke="#3a414a" stroke-width=".05" fill="#3a414a"/><path d="M654.4 1625.1l-7.5-12.98h15z" stroke="#3a414a" stroke-width="3" fill="#3a414a"/><path d="M654.4 1789.44v117.38" stroke="#3a414a" stroke-width="3" stroke-linejoin="round" fill="none"/><path d="M653.18 1787.9l1.22.04 1.22-.04.26-.03v1.6h-2.95v-1.6z" stroke="#3a414a" stroke-width=".05" fill="#3a414a"/><path d="M654.4 1921.3l-7.5-12.98h15z" stroke="#3a414a" stroke-width="3" fill="#3a414a"/><path d="M654.4 2085.64v94.95" stroke="#3a414a" stroke-width="3" stroke-linejoin="round" fill="none"/><path d="M653.18 2084.1l1.22.04 1.22-.04.26-.03v1.6h-2.95v-1.6z" stroke="#3a414a" stroke-width=".05" fill="#3a414a"/><path d="M654.4 2195.1l-7.5-13h15z" stroke="#3a414a" stroke-width="3" fill="#3a414a"/><path d="M654.4 2281.6v75.07" stroke="#3a414a" stroke-width="3" stroke-linejoin="round" fill="none"/><path d="M655.88 2281.63h-2.95v-1.54h2.95z" stroke="#3a414a" stroke-width=".05" fill="#3a414a"/><path d="M654.4 2371.16l-7.5-13h15z" stroke="#3a414a" stroke-width="3" fill="#3a414a"/><path d="M866.53 1411.82H984.5" stroke="#3a414a" stroke-width="3" stroke-linejoin="round" fill="none"/><path d="M866.57 1413.3h-1.9l.26-.7.1-.78-.1-.78-.26-.7h1.9z" stroke="#3a414a" stroke-width=".05" fill="#3a414a"/><path d="M998.98 1411.82l-13 7.5v-15z" stroke="#3a414a" stroke-width="3" fill="#3a414a"/><path d="M866.53 2004.23H984.5" stroke="#3a414a" stroke-width="3" stroke-linejoin="round" fill="none"/><path d="M866.57 2005.7h-1.9l.26-.7.1-.77-.1-.78-.26-.7h1.9z" stroke="#3a414a" stroke-width=".05" fill="#3a414a"/><path d="M998.98 2004.23l-13 7.5v-15z" stroke="#3a414a" stroke-width="3" fill="#3a414a"/><path d="M866.53 1708.03H984.5" stroke="#3a414a" stroke-width="3" stroke-linejoin="round" fill="none"/><path d="M866.57 1709.5h-1.9l.26-.7.1-.77-.1-.8-.26-.68h1.9z" stroke="#3a414a" stroke-width=".05" fill="#3a414a"/><path d="M998.98 1708.03l-13 7.5v-15z" stroke="#3a414a" stroke-width="3" fill="#3a414a"/><path d="M932.16 2454.32h52.33" stroke="#3a414a" stroke-width="3" stroke-linejoin="round" fill="none"/><path d="M932.2 2455.8h-2l.1-.14.27-.65.1-.68-.1-.7-.26-.65-.1-.13h2z" stroke="#3a414a" stroke-width=".05" fill="#3a414a"/><path d="M998.98 2454.32l-13 7.5v-15z" stroke="#3a414a" stroke-width="3" fill="#3a414a"/><path d="M417.07 2663a6 6 0 0 1 6-6h462.66a6 6 0 0 1 6 6v68a6 6 0 0 1-6 6H423.07a6 6 0 0 1-6-6z" stroke="#000" stroke-width="2" fill="#fff"/><use xlink:href="#A" transform="matrix(1,0,0,1,422.0677431839709,2662) translate(146.86376953125 44.328125)"/><use xlink:href="#B" transform="matrix(1,0,0,1,422.0677431839709,2662) translate(215.25341796875 44.328125)"/><use xlink:href="#C" transform="matrix(1,0,0,1,422.0677431839709,2662) translate(239.34912109375 44.328125)"/><use xlink:href="#Y" transform="matrix(1,0,0,1,422.0677431839709,2662) translate(301.45458984375 44.328125)"/><path d="M654.4 2535.98v102.53" stroke="#3a414a" stroke-width="3" stroke-linejoin="round" fill="none"/><path d="M653.18 2534.44l1.22.03 1.23-.03.25-.02v1.6h-2.95v-1.6z" stroke="#3a414a" stroke-width=".05" fill="#3a414a"/><path d="M654.4 2653l-7.5-13h15z" stroke="#3a414a" stroke-width="3" fill="#3a414a"/><path d="M417.07 2843a6 6 0 0 1 6-6h462.66a6 6 0 0 1 6 6v68a6 6 0 0 1-6 6H423.07a6 6 0 0 1-6-6z" stroke="#000" stroke-width="2" fill="#fff"/><g><use xlink:href="#E" transform="matrix(1,0,0,1,422.0677431839709,2842) translate(85.8564453125 44.328125)"/><use xlink:href="#N" transform="matrix(1,0,0,1,422.0677431839709,2842) translate(141.14453125 44.328125)"/><use xlink:href="#Z" transform="matrix(1,0,0,1,422.0677431839709,2842) translate(175.650390625 44.328125)"/><use xlink:href="#F" transform="matrix(1,0,0,1,422.0677431839709,2842) translate(304.1142578125 44.328125)"/><use xlink:href="#z" transform="matrix(1,0,0,1,422.0677431839709,2842) translate(328.1083984375 44.328125)"/><use xlink:href="#i" transform="matrix(1,0,0,1,422.0677431839709,2842) translate(359.2626953125 44.328125)"/></g><path d="M654.4 2739.5v79" stroke="#3a414a" stroke-width="3" stroke-linejoin="round" fill="none"/><path d="M655.88 2739.54h-2.95V2738h2.95z" stroke="#3a414a" stroke-width=".05" fill="#3a414a"/><path d="M654.4 2833l-7.5-13h15z" stroke="#3a414a" stroke-width="3" fill="#3a414a"/><path d="M648.78 3019.1a16.03 16.03 0 0 1 11.24 0l202.54 75.8a2.25 2.25 0 0 1 0 4.2l-202.54 75.8a16.03 16.03 0 0 1-11.24 0l-202.54-75.8a2.25 2.25 0 0 1 0-4.2z" stroke="#000" stroke-width="2" fill="#fff"/><g><use xlink:href="#aa" transform="matrix(1,0,0,1,445.6232987395266,3022) translate(95.83263671875 84.3671875)"/><use xlink:href="#G" transform="matrix(1,0,0,1,445.6232987395266,3022) translate(186.70568359375 84.3671875)"/><use xlink:href="#ab" transform="matrix(1,0,0,1,445.6232987395266,3022) translate(213.89904296875 84.3671875)"/><use xlink:href="#ac" transform="matrix(1,0,0,1,445.6232987395266,3022) translate(238.41369140625 84.3671875)"/></g><path d="M654.4 2919.5v80.1" stroke="#3a414a" stroke-width="3" stroke-linejoin="round" fill="none"/><path d="M655.88 2919.54h-2.95V2918h2.95z" stroke="#3a414a" stroke-width=".05" fill="#3a414a"/><path d="M654.4 3014.1l-7.5-13h15z" stroke="#3a414a" stroke-width="3" fill="#3a414a"/><path d="M735.73 3349c0 46.4-36.4 84-81.33 84-44.92 0-81.33-37.6-81.33-84s36.4-84 81.33-84c44.92 0 81.33 37.6 81.33 84z" stroke="#000" stroke-width="2" fill="#fff"/><g><use xlink:href="#ad" transform="matrix(1,0,0,1,578.0677431839708,3270) translate(49.509765625 88.44921875)"/></g><path d="M654.4 3178.42v68.1" stroke="#3a414a" stroke-width="3" stroke-linejoin="round" fill="none"/><path d="M653.18 3176.87l1.22.05 1.22-.05.26-.03v1.6h-2.95v-1.6z" stroke="#3a414a" stroke-width=".05" fill="#3a414a"/><path d="M654.4 3261l-7.5-13h15z" stroke="#3a414a" stroke-width="3" fill="#3a414a"/><path d="M402.73 938.82H-728.03V2877h1142.6" stroke="#3a414a" stroke-width="3" fill="none"/><path d="M417.22 938.82l-13 7.5v-15z" stroke="#3a414a" stroke-width="3" fill="#3a414a"/><path d="M416.07 2878.47h-1.54v-2.94h1.54z" stroke="#3a414a" stroke-width=".05" fill="#3a414a"/><path d="M-165.1 940.32V2673a24 24 0 0 0 24 24h555.67M-165.1 940.36v-1.54" stroke="#3a414a" stroke-width="3" fill="none"/><path d="M416.07 2698.47h-1.54v-2.94h1.54z" stroke="#3a414a" stroke-width=".05" fill="#3a414a"/><path d="M905.6 1369.3a6 6 0 0 1 6-6h47.96a6 6 0 0 1 6 6v29.48a6 6 0 0 1-6 6H911.6a6 6 0 0 1-6-6z" fill="none"/><g><use xlink:href="#ae" transform="matrix(1,0,0,1,910.5940009166063,1368.3124071862524) translate(0 25.4580078125)"/></g><path d="M905.6 1671.03a6 6 0 0 1 6-6h47.96a6 6 0 0 1 6 6v29.47a6 6 0 0 1-6 6H911.6a6 6 0 0 1-6-6z" fill="none"/><g><use xlink:href="#ae" transform="matrix(1,0,0,1,910.5940009166063,1670.0272008088) translate(0 25.4580078125)"/></g><path d="M905.6 1952.83a6 6 0 0 1 6-6h47.96a6 6 0 0 1 6 6v29.47a6 6 0 0 1-6 6H911.6a6 6 0 0 1-6-6z" fill="none"/><g><use xlink:href="#ae" transform="matrix(1,0,0,1,910.5940009166063,1951.8318337239018) translate(0 25.4580078125)"/></g><path d="M919 2404.57a6 6 0 0 1 6-6h47.97a6 6 0 0 1 6 6v29.47a6 6 0 0 1-6 6H925a6 6 0 0 1-6-6z" fill="none"/><g><use xlink:href="#ae" transform="matrix(1,0,0,1,924.0004819073689,2403.57125777507) translate(0 25.4580078125)"/></g><path d="M638.05 1062.34a6 6 0 0 1 6-6H692a6 6 0 0 1 6 6v29.47a6 6 0 0 1-6 6h-47.95a6 6 0 0 1-6-6z" fill="none"/><g><use xlink:href="#ae" transform="matrix(1,0,0,1,643.0459919245178,1061.3366904306938) translate(0 25.4580078125)"/></g><path d="M-797.36 912.58a6 6 0 0 1 6-6h37.48a6 6 0 0 1 6 6v29.46a6 6 0 0 1-6 6h-37.48a6 6 0 0 1-6-6z" fill="none"/><g><use xlink:href="#af" transform="matrix(1,0,0,1,-792.35880879977,911.575984212382) translate(0 25.4580078125)"/></g><path d="M398.58 2877h-55" stroke="#3a414a" stroke-width="3" fill="none"/><path d="M413.07 2877l-13 7.5v-15z" stroke="#3a414a" stroke-width="3" fill="#3a414a"/><path d="M343.6 2877h-1.53M1478.64 2452.82v-1039.5" stroke="#3a414a" stroke-width="3" fill="none"/><path d="M1480.12 2457.32h-1.48v-4.54h1.48zM1480.12 1413.36h-1.48v-4.54h1.48z" stroke="#3a414a" stroke-width=".05" fill="#3a414a"/><path d="M1478.64 1410.32v-235H910.22" stroke="#3a414a" stroke-width="3" fill="none"/><path d="M1480.12 1414.82h-1.48v-4.54h1.48z" stroke="#3a414a" stroke-width=".05" fill="#3a414a"/><path d="M895.73 1175.32l13-7.5v15z" stroke="#3a414a" stroke-width="3" fill="#3a414a"/><path d="M664.43 2574.92a6 6 0 0 1 6-6h37.48a6 6 0 0 1 6 6v29.47a6 6 0 0 1-6 6h-37.47a6 6 0 0 1-6-6z" fill="none"/><g><use xlink:href="#af" transform="matrix(1,0,0,1,669.4332141939885,2573.9233023906186) translate(0 25.4580078125)"/></g><path d="M656.57 2113.76a6 6 0 0 1 6-6h37.48a6 6 0 0 1 6 6v29.47a6 6 0 0 1-6 6h-37.48a6 6 0 0 1-6-6z" fill="none"/><g><use xlink:href="#af" transform="matrix(1,0,0,1,661.5725328613735,2112.7633308772133) translate(0 25.4580078125)"/></g><path d="M661.8 1822.05a6 6 0 0 1 6-6h37.5a6 6 0 0 1 6 6v29.46a6 6 0 0 1-6 6h-37.5a6 6 0 0 1-6-6z" fill="none"/><g><use xlink:href="#af" transform="matrix(1,0,0,1,666.8129870831167,1821.0447125335063) translate(0 25.4580078125)"/></g><path d="M656.57 1536.44a6 6 0 0 1 6-6h37.48a6 6 0 0 1 6 6v29.47a6 6 0 0 1-6 6h-37.48a6 6 0 0 1-6-6z" fill="none"/><g><use xlink:href="#af" transform="matrix(1,0,0,1,661.5725328613735,1535.4399574484996) translate(0 25.4580078125)"/></g><defs><path d="M657 26c-323 0-524-166-541-416h195c15 169 171 246 346 246 202 0 356-106 356-265 5-203-294-238-475-293-239-73-380-191-380-389 0-252 224-419 512-419 294 0 499 171 508 396H992c-17-145-151-228-328-228-193 0-321 102-321 242 0 156 175 211 284 241l149 41c160 44 422 134 422 412 0 244-197 432-541 432" id="ag"/><path d="M98-1322v-168h1126v168H757V0H567v-1322H98" id="ah"/><path d="M52 0l541-1490h220L1361 0h-200l-149-416H398L254 0H52zm404-582h497c-103-290-145-390-251-756-108 377-145 460-246 756" id="ai"/><path d="M180 0v-1490h510c348 0 508 194 508 460 0 198-88 351-276 417L1256 0h-220L726-579c-117 2-238 0-356 1V0H180zm190-747h312c235 0 327-108 327-283 0-177-92-293-329-293H370v576" id="aj"/><g id="a"><use transform="matrix(0.0126953125,0,0,0.0126953125,0,0)" xlink:href="#ag"/><use transform="matrix(0.0126953125,0,0,0.0126953125,16.681640625,0)" xlink:href="#ah"/><use transform="matrix(0.0126953125,0,0,0.0126953125,31.255859375,0)" xlink:href="#ai"/><use transform="matrix(0.0126953125,0,0,0.0126953125,49.1943359375,0)" xlink:href="#aj"/><use transform="matrix(0.0126953125,0,0,0.0126953125,65.9267578125,0)" xlink:href="#ah"/></g><path d="M628 24c-324 0-524-230-524-574 0-343 198-582 503-582 237 0 487 146 487 559v75H286c9 234 145 362 343 362 132 0 231-58 273-172l174 48C1024-91 857 24 628 24zM287-650h624c-17-190-120-322-304-322-192 0-309 151-320 322" id="ak"/><path d="M471 26C259 26 90-98 90-318c0-256 228-303 435-329 202-27 287-16 287-108 0-139-79-219-234-219-161 0-248 86-283 164l-173-57c86-203 278-265 451-265 150 0 419 46 419 395V0H815v-152h-12C765-73 660 26 471 26zm31-159c199 0 310-134 310-271v-155c-30 35-226 55-295 64-131 17-246 59-246 186 0 116 97 176 231 176" id="al"/><path d="M577 24c-279 0-473-224-473-580 0-354 195-576 474-576 218 0 287 134 324 193h14v-551h180V0H922v-173h-20C865-111 790 24 577 24zm27-161c203 0 314-172 314-421 0-247-108-413-314-413-212 0-317 181-317 413 0 235 108 421 317 421" id="am"/><g id="b"><use transform="matrix(0.0126953125,0,0,0.0126953125,0,0)" xlink:href="#aj"/><use transform="matrix(0.0126953125,0,0,0.0126953125,16.3515625,0)" xlink:href="#ak"/><use transform="matrix(0.0126953125,0,0,0.0126953125,31.763671875,0)" xlink:href="#al"/><use transform="matrix(0.0126953125,0,0,0.0126953125,46.36328125,0)" xlink:href="#am"/></g><path d="M370-1490V0H180v-1490h190" id="an"/><path d="M338-670V0H158v-1118h173l1 207c72-158 192-221 342-221 226 0 378 139 378 422V0H872v-695c0-172-96-275-252-275-161 0-282 109-282 300" id="ao"/><path d="M678-1118v154H420V0H240v-964H20v-154h220v-149c0-194 155-293 318-293 85 0 141 18 168 30l-50 154c-19-6-47-17-97-17-111 0-159 58-159 166v109h258" id="ap"/><path d="M158 0v-1118h180V0H158zm91-1301c-68 0-125-53-125-119s57-119 125-119c69 0 126 53 126 119s-57 119-126 119" id="aq"/><path d="M65 0l393-574-370-544h210c88 136 192 297 267 435 67-142 176-302 264-435h206L661-564 1053 0H844c-94-144-206-310-287-458C484-308 366-142 273 0H65" id="ar"/><g id="c"><use transform="matrix(0.0126953125,0,0,0.0126953125,0,0)" xlink:href="#an"/><use transform="matrix(0.0126953125,0,0,0.0126953125,6.982421875,0)" xlink:href="#ao"/><use transform="matrix(0.0126953125,0,0,0.0126953125,22.34375,0)" xlink:href="#ap"/><use transform="matrix(0.0126953125,0,0,0.0126953125,31.966796875,0)" xlink:href="#aq"/><use transform="matrix(0.0126953125,0,0,0.0126953125,38.263671875,0)" xlink:href="#ar"/></g><path d="M180 0v-1490h908v168H370v486h669v168H370v500h727V0H180" id="as"/><path d="M158 418v-1536h174v179h20c37-59 106-193 324-193 279 0 474 222 474 576 0 356-194 580-473 580-213 0-288-135-325-197h-14v591H158zm492-555c209 0 317-186 317-421 0-232-105-413-317-413-206 0-314 166-314 413 0 249 111 421 314 421" id="at"/><path d="M158 0v-1118h174v172h12c41-113 157-188 290-188 26 0 70 2 91 3v181c-11-2-60-10-108-10-161 0-279 109-279 260V0H158" id="au"/><path d="M538 24C308 24 148-78 108-271l171-41c32 123 123 178 257 178 156 0 256-77 256-169 0-77-54-128-164-154l-186-44c-203-48-300-148-300-305 0-192 176-326 414-326 230 0 351 112 402 269l-163 42c-31-80-94-158-238-158-133 0-233 69-233 162 0 83 57 129 188 160l169 40c203 48 298 149 298 302 0 196-179 339-441 339" id="av"/><path d="M613 24c-304 0-509-231-509-576 0-350 205-580 509-580 305 0 511 230 511 580 0 345-206 576-511 576zm0-161c226 0 329-195 329-415 0-222-103-419-329-419-223 0-326 196-326 419 0 220 103 415 326 415" id="aw"/><g id="d"><use transform="matrix(0.0126953125,0,0,0.0126953125,0,0)" xlink:href="#as"/><use transform="matrix(0.0126953125,0,0,0.0126953125,15.6279296875,0)" xlink:href="#ar"/><use transform="matrix(0.0126953125,0,0,0.0126953125,29.8212890625,0)" xlink:href="#at"/><use transform="matrix(0.0126953125,0,0,0.0126953125,45.7412109375,0)" xlink:href="#au"/><use transform="matrix(0.0126953125,0,0,0.0126953125,55.09765625,0)" xlink:href="#ak"/><use transform="matrix(0.0126953125,0,0,0.0126953125,70.255859375,0)" xlink:href="#av"/><use transform="matrix(0.0126953125,0,0,0.0126953125,83.9794921875,0)" xlink:href="#av"/><use transform="matrix(0.0126953125,0,0,0.0126953125,97.703125,0)" xlink:href="#aq"/><use transform="matrix(0.0126953125,0,0,0.0126953125,104,0)" xlink:href="#aw"/><use transform="matrix(0.0126953125,0,0,0.0126953125,119.58984375,0)" xlink:href="#ao"/></g><path d="M598-1118v154H368v674c0 100 37 144 132 144 23 0 62-6 92-12L629-6c-37 13-88 20-134 20-193 0-307-107-307-290v-688H20v-154h168v-266h180v266h230" id="ax"/><path d="M338-1490V0H158v-1490h180" id="ay"/><path d="M126 0v-134l627-806v-11H146v-167h839v143L376-178v11h629V0H126" id="az"/><g id="e"><use transform="matrix(0.0126953125,0,0,0.0126953125,0,0)" xlink:href="#an"/><use transform="matrix(0.0126953125,0,0,0.0126953125,6.982421875,0)" xlink:href="#ao"/><use transform="matrix(0.0126953125,0,0,0.0126953125,22.34375,0)" xlink:href="#aq"/><use transform="matrix(0.0126953125,0,0,0.0126953125,28.640625,0)" xlink:href="#ax"/><use transform="matrix(0.0126953125,0,0,0.0126953125,37.146484375,0)" xlink:href="#aq"/><use transform="matrix(0.0126953125,0,0,0.0126953125,43.443359375,0)" xlink:href="#al"/><use transform="matrix(0.0126953125,0,0,0.0126953125,58.04296875,0)" xlink:href="#ay"/><use transform="matrix(0.0126953125,0,0,0.0126953125,64.33984375,0)" xlink:href="#aq"/><use transform="matrix(0.0126953125,0,0,0.0126953125,70.63671875,0)" xlink:href="#az"/><use transform="matrix(0.0126953125,0,0,0.0126953125,84.6142578125,0)" xlink:href="#ak"/></g><path d="M613 24c-304 0-509-231-509-576 0-350 205-580 509-580 216 0 392 114 453 309l-173 49c-33-115-133-197-280-197-223 0-326 196-326 419 0 220 103 415 326 415 150 0 252-85 285-206l172 49C1010-95 832 24 613 24" id="aA"/><path d="M158 0v-1490h180v865h22l478-493h223L593-638 1096 0H865L456-523 338-412V0H158" id="aB"/><g id="f"><use transform="matrix(0.0126953125,0,0,0.0126953125,0,0)" xlink:href="#ag"/><use transform="matrix(0.0126953125,0,0,0.0126953125,16.681640625,0)" xlink:href="#ax"/><use transform="matrix(0.0126953125,0,0,0.0126953125,25.314453125,0)" xlink:href="#al"/><use transform="matrix(0.0126953125,0,0,0.0126953125,39.9140625,0)" xlink:href="#aA"/><use transform="matrix(0.0126953125,0,0,0.0126953125,54.767578125,0)" xlink:href="#aB"/></g><path d="M128 359l88-567h206L266 359H128" id="aC"/><g id="g"><use transform="matrix(0.0126953125,0,0,0.0126953125,0,0)" xlink:href="#ag"/><use transform="matrix(0.0126953125,0,0,0.0126953125,16.681640625,0)" xlink:href="#aC"/></g><path d="M784 20c-382 0-662-292-662-764 0-473 280-766 662-766s660 293 660 766c0 472-278 764-660 764zm0-176c266 0 475-207 475-588 0-383-209-590-475-590-268 0-477 208-477 590 0 380 209 588 477 588" id="aD"/><path d="M537 14c-226 0-379-139-379-422v-710h180v695c0 172 97 275 253 275 160 0 281-109 281-300v-670h181V0H879v-209C806-46 684 14 537 14" id="aE"/><g id="h"><use transform="matrix(0.0126953125,0,0,0.0126953125,0,0)" xlink:href="#aD"/><use transform="matrix(0.0126953125,0,0,0.0126953125,19.880859375,0)" xlink:href="#aE"/><use transform="matrix(0.0126953125,0,0,0.0126953125,35.2548828125,0)" xlink:href="#ax"/><use transform="matrix(0.0126953125,0,0,0.0126953125,43.7607421875,0)" xlink:href="#at"/><use transform="matrix(0.0126953125,0,0,0.0126953125,59.6806640625,0)" xlink:href="#aE"/><use transform="matrix(0.0126953125,0,0,0.0126953125,75.0546875,0)" xlink:href="#ax"/></g><path d="M784 20c-382 0-662-292-662-764 0-473 280-766 662-766s660 293 660 766c0 282-99 499-260 629l192 255h-198L1049-33C969 2 880 20 784 20zm-62-486h198l156 205c112-98 183-261 183-483 0-383-209-590-475-590-268 0-477 208-477 590 0 380 209 588 477 588 54 0 106-9 154-25" id="aF"/><use transform="matrix(0.0126953125,0,0,0.0126953125,0,0)" xlink:href="#aF" id="i"/><path d="M180 0v-1490h270l367 940c28 72 75 218 110 339 35-117 81-264 110-339l362-940h271V0h-187c2-448-5-837 7-1287-157 497-311 829-483 1287H842C666-458 514-784 354-1284c12 438 5 843 7 1284H180" id="aG"/><g id="j"><use transform="matrix(0.0126953125,0,0,0.0126953125,0,0)" xlink:href="#aG"/><use transform="matrix(0.0126953125,0,0,0.0126953125,23.486328125,0)" xlink:href="#aw"/><use transform="matrix(0.0126953125,0,0,0.0126953125,39.076171875,0)" xlink:href="#au"/><use transform="matrix(0.0126953125,0,0,0.0126953125,48.4326171875,0)" xlink:href="#ak"/></g><path d="M383-449c-3-277 82-343 222-425 88-53 156-134 156-250 0-139-108-227-243-227-118 0-235 70-246 236H82c10-251 200-395 436-395 259 0 427 165 427 393 0 161-74 273-203 352-132 80-180 132-178 316H383zm93 462c-75 0-135-60-135-134 0-75 60-135 135-135 74 0 134 60 134 135 0 74-60 134-134 134" id="aH"/><g id="k"><use transform="matrix(0.0126953125,0,0,0.0126953125,0,0)" xlink:href="#ax"/><use transform="matrix(0.0126953125,0,0,0.0126953125,8.251953125,0)" xlink:href="#aw"/><use transform="matrix(0.0126953125,0,0,0.0126953125,23.841796875,0)" xlink:href="#aB"/><use transform="matrix(0.0126953125,0,0,0.0126953125,37.52734375,0)" xlink:href="#ak"/><use transform="matrix(0.0126953125,0,0,0.0126953125,52.685546875,0)" xlink:href="#ao"/><use transform="matrix(0.0126953125,0,0,0.0126953125,68.046875,0)" xlink:href="#av"/><use transform="matrix(0.0126953125,0,0,0.0126953125,81.7705078125,0)" xlink:href="#aH"/></g><path d="M789 20c-398 0-667-293-667-764 0-473 273-766 655-766 315 0 558 198 612 487h-196c-61-191-204-311-415-311-262 0-471 207-471 590 0 380 208 588 482 588 249 0 420-165 425-427H828v-166h572v163c0 370-256 606-611 606" id="aI"/><g id="l"><use transform="matrix(0.0126953125,0,0,0.0126953125,0,0)" xlink:href="#aI"/><use transform="matrix(0.0126953125,0,0,0.0126953125,19.3984375,0)" xlink:href="#ak"/><use transform="matrix(0.0126953125,0,0,0.0126953125,34.556640625,0)" xlink:href="#ax"/></g><g id="m"><use transform="matrix(0.0126953125,0,0,0.0126953125,0,0)" xlink:href="#ao"/><use transform="matrix(0.0126953125,0,0,0.0126953125,15.361328125,0)" xlink:href="#ak"/><use transform="matrix(0.0126953125,0,0,0.0126953125,29.935546875,0)" xlink:href="#ar"/><use transform="matrix(0.0126953125,0,0,0.0126953125,44.63671875,0)" xlink:href="#ax"/></g><g id="n"><use transform="matrix(0.0126953125,0,0,0.0126953125,0,0)" xlink:href="#ax"/><use transform="matrix(0.0126953125,0,0,0.0126953125,8.251953125,0)" xlink:href="#aw"/><use transform="matrix(0.0126953125,0,0,0.0126953125,23.841796875,0)" xlink:href="#aB"/><use transform="matrix(0.0126953125,0,0,0.0126953125,37.52734375,0)" xlink:href="#ak"/><use transform="matrix(0.0126953125,0,0,0.0126953125,52.685546875,0)" xlink:href="#ao"/></g><use transform="matrix(0.0126953125,0,0,0.0126953125,0,0)" xlink:href="#ah" id="o"/><use transform="matrix(0.0126953125,0,0,0.0126953125,0,0)" xlink:href="#ah" id="p"/><g id="q"><use transform="matrix(0.0126953125,0,0,0.0126953125,0,0)" xlink:href="#aq"/><use transform="matrix(0.0126953125,0,0,0.0126953125,6.296875,0)" xlink:href="#av"/></g><g id="r"><use transform="matrix(0.0126953125,0,0,0.0126953125,0,0)" xlink:href="#aD"/><use transform="matrix(0.0126953125,0,0,0.0126953125,19.880859375,0)" xlink:href="#at"/><use transform="matrix(0.0126953125,0,0,0.0126953125,35.80078125,0)" xlink:href="#ak"/><use transform="matrix(0.0126953125,0,0,0.0126953125,50.958984375,0)" xlink:href="#au"/><use transform="matrix(0.0126953125,0,0,0.0126953125,60.7470703125,0)" xlink:href="#al"/><use transform="matrix(0.0126953125,0,0,0.0126953125,75.3466796875,0)" xlink:href="#ao"/><use transform="matrix(0.0126953125,0,0,0.0126953125,90.7080078125,0)" xlink:href="#am"/></g><path d="M226-283v-166h904v166H226zm0-434v-166h904v166H226" id="aJ"/><g id="s"><use transform="matrix(0.0126953125,0,0,0.0126953125,0,0)" xlink:href="#aJ"/><use transform="matrix(0.0126953125,0,0,0.0126953125,17.2021484375,0)" xlink:href="#aJ"/></g><path d="M232-923l-22-567h194l-22 567H232" id="aK"/><path d="M218-607c0-325 108-727 258-974h175c-155 315-250 682-250 974 0 265 78 531 250 886H476C306-10 218-315 218-607" id="aL"/><g id="t"><use transform="matrix(0.0126953125,0,0,0.0126953125,0,0)" xlink:href="#aK"/><use transform="matrix(0.0126953125,0,0,0.0126953125,7.794921875,0)" xlink:href="#aL"/><use transform="matrix(0.0126953125,0,0,0.0126953125,17.2783203125,0)" xlink:href="#aK"/></g><use transform="matrix(0.0126953125,0,0,0.0126953125,0,0)" xlink:href="#aH" id="u"/><g id="v"><use transform="matrix(0.0126953125,0,0,0.0126953125,0,0)" xlink:href="#aJ"/><use transform="matrix(0.0126953125,0,0,0.0126953125,17.2021484375,0)" xlink:href="#aJ"/></g><path d="M96 279C273-86 346-350 346-607c0-292-95-659-250-974h175c150 246 258 650 258 974 0 297-91 602-258 886H96" id="aM"/><g id="w"><use transform="matrix(0.0126953125,0,0,0.0126953125,0,0)" xlink:href="#aK"/><use transform="matrix(0.0126953125,0,0,0.0126953125,7.794921875,0)" xlink:href="#aM"/><use transform="matrix(0.0126953125,0,0,0.0126953125,17.2783203125,0)" xlink:href="#aK"/></g><g id="x"><use transform="matrix(0.0126953125,0,0,0.0126953125,0,0)" xlink:href="#ai"/><use transform="matrix(0.0126953125,0,0,0.0126953125,17.9384765625,0)" xlink:href="#at"/><use transform="matrix(0.0126953125,0,0,0.0126953125,33.8583984375,0)" xlink:href="#at"/><use transform="matrix(0.0126953125,0,0,0.0126953125,49.7783203125,0)" xlink:href="#ak"/><use transform="matrix(0.0126953125,0,0,0.0126953125,64.9365234375,0)" xlink:href="#ao"/><use transform="matrix(0.0126953125,0,0,0.0126953125,80.2978515625,0)" xlink:href="#am"/></g><use transform="matrix(0.0126953125,0,0,0.0126953125,0,0)" xlink:href="#ah" id="y"/><g id="z"><use transform="matrix(0.0126953125,0,0,0.0126953125,0,0)" xlink:href="#ax"/><use transform="matrix(0.0126953125,0,0,0.0126953125,8.251953125,0)" xlink:href="#aw"/></g><path d="M180 0v-1490h510c348 0 508 209 508 474 0 266-160 477-507 477H370V0H180zm190-706h312c236 0 327-133 327-310 0-176-91-307-329-307H370v617" id="aN"/><path d="M338-670V0H158v-1490h180v566c73-149 190-208 336-208 226 0 379 139 379 422V0H872v-695c0-172-96-275-252-275-161 0-282 109-282 300" id="aO"/><g id="A"><use transform="matrix(0.0126953125,0,0,0.0126953125,0,0)" xlink:href="#aN"/><use transform="matrix(0.0126953125,0,0,0.0126953125,16.60546875,0)" xlink:href="#aE"/><use transform="matrix(0.0126953125,0,0,0.0126953125,31.9794921875,0)" xlink:href="#av"/><use transform="matrix(0.0126953125,0,0,0.0126953125,45.703125,0)" xlink:href="#aO"/></g><use transform="matrix(0.0126953125,0,0,0.0126953125,0,0)" xlink:href="#ah" id="B"/><g id="C"><use transform="matrix(0.0126953125,0,0,0.0126953125,0,0)" xlink:href="#aw"/><use transform="matrix(0.0126953125,0,0,0.0126953125,15.58984375,0)" xlink:href="#ao"/><use transform="matrix(0.0126953125,0,0,0.0126953125,30.951171875,0)" xlink:href="#ax"/><use transform="matrix(0.0126953125,0,0,0.0126953125,39.203125,0)" xlink:href="#aw"/></g><use transform="matrix(0.0126953125,0,0,0.0126953125,0,0)" xlink:href="#ag" id="D"/><g id="E"><use transform="matrix(0.0126953125,0,0,0.0126953125,0,0)" xlink:href="#aN"/><use transform="matrix(0.0126953125,0,0,0.0126953125,16.4658203125,0)" xlink:href="#aw"/><use transform="matrix(0.0126953125,0,0,0.0126953125,32.0556640625,0)" xlink:href="#at"/></g><use transform="matrix(0.0126953125,0,0,0.0126953125,0,0)" xlink:href="#ag" id="F"/><use transform="matrix(0.0126953125,0,0,0.0126953125,0,0)" xlink:href="#aF" id="G"/><g id="H"><use transform="matrix(0.0126953125,0,0,0.0126953125,0,0)" xlink:href="#aE"/><use transform="matrix(0.0126953125,0,0,0.0126953125,15.3740234375,0)" xlink:href="#ao"/><use transform="matrix(0.0126953125,0,0,0.0126953125,30.7353515625,0)" xlink:href="#ax"/><use transform="matrix(0.0126953125,0,0,0.0126953125,39.2412109375,0)" xlink:href="#aq"/><use transform="matrix(0.0126953125,0,0,0.0126953125,45.5380859375,0)" xlink:href="#ay"/></g><g id="I"><use transform="matrix(0.0126953125,0,0,0.0126953125,0,0)" xlink:href="#aK"/><use transform="matrix(0.0126953125,0,0,0.0126953125,7.794921875,0)" xlink:href="#aL"/><use transform="matrix(0.0126953125,0,0,0.0126953125,17.2783203125,0)" xlink:href="#aK"/></g><use transform="matrix(0.0126953125,0,0,0.0126953125,0,0)" xlink:href="#ah" id="J"/><g id="K"><use transform="matrix(0.0126953125,0,0,0.0126953125,0,0)" xlink:href="#aw"/><use transform="matrix(0.0126953125,0,0,0.0126953125,15.58984375,0)" xlink:href="#at"/><use transform="matrix(0.0126953125,0,0,0.0126953125,31.509765625,0)" xlink:href="#ak"/><use transform="matrix(0.0126953125,0,0,0.0126953125,46.66796875,0)" xlink:href="#au"/><use transform="matrix(0.0126953125,0,0,0.0126953125,56.4560546875,0)" xlink:href="#al"/><use transform="matrix(0.0126953125,0,0,0.0126953125,71.0556640625,0)" xlink:href="#ax"/><use transform="matrix(0.0126953125,0,0,0.0126953125,79.3076171875,0)" xlink:href="#aw"/><use transform="matrix(0.0126953125,0,0,0.0126953125,94.8974609375,0)" xlink:href="#au"/></g><g id="L"><use transform="matrix(0.0126953125,0,0,0.0126953125,0,0)" xlink:href="#aL"/><use transform="matrix(0.0126953125,0,0,0.0126953125,9.4833984375,0)" xlink:href="#ap"/><use transform="matrix(0.0126953125,0,0,0.0126953125,18.7001953125,0)" xlink:href="#al"/><use transform="matrix(0.0126953125,0,0,0.0126953125,33.2998046875,0)" xlink:href="#ay"/><use transform="matrix(0.0126953125,0,0,0.0126953125,39.5966796875,0)" xlink:href="#ay"/><use transform="matrix(0.0126953125,0,0,0.0126953125,45.8935546875,0)" xlink:href="#av"/></g><path d="M611 442c-248 0-391-105-460-228l146-94c47 65 117 165 314 165 178 0 307-82 307-266v-224h-17C863-141 792-18 576-18c-268 0-472-195-472-546 0-346 197-568 476-568 216 0 288 133 326 193h17v-179h175V29c0 289-215 413-487 413zm-5-620c203 0 314-146 314-390 0-237-108-403-314-403-213 0-319 180-319 403 0 230 109 390 319 390" id="aP"/><g id="M"><use transform="matrix(0.0126953125,0,0,0.0126953125,0,0)" xlink:href="#ax"/><use transform="matrix(0.0126953125,0,0,0.0126953125,8.505859375,0)" xlink:href="#aO"/><use transform="matrix(0.0126953125,0,0,0.0126953125,23.8798828125,0)" xlink:href="#au"/><use transform="matrix(0.0126953125,0,0,0.0126953125,33.236328125,0)" xlink:href="#aw"/><use transform="matrix(0.0126953125,0,0,0.0126953125,48.826171875,0)" xlink:href="#aE"/><use transform="matrix(0.0126953125,0,0,0.0126953125,64.2001953125,0)" xlink:href="#aP"/><use transform="matrix(0.0126953125,0,0,0.0126953125,80.1455078125,0)" xlink:href="#aO"/></g><g id="N"><use transform="matrix(0.0126953125,0,0,0.0126953125,0,0)" xlink:href="#al"/><use transform="matrix(0.0126953125,0,0,0.0126953125,14.599609375,0)" xlink:href="#ay"/><use transform="matrix(0.0126953125,0,0,0.0126953125,20.896484375,0)" xlink:href="#ay"/></g><path d="M180 0v-1490h224l606 953c40 63 108 177 176 312-27-437-7-821-13-1265h190V0h-226C860-448 622-778 356-1262c27 476 11 792 15 1262H180" id="aQ"/><g id="O"><use transform="matrix(0.0126953125,0,0,0.0126953125,0,0)" xlink:href="#aQ"/><use transform="matrix(0.0126953125,0,0,0.0126953125,19.5888671875,0)" xlink:href="#aD"/></g><path d="M677 24c-213 0-288-135-325-197h-20V0H158v-1490h180v551h14c37-59 106-193 324-193 279 0 474 222 474 576 0 356-194 580-473 580zm-27-161c209 0 317-186 317-421 0-232-105-413-317-413-206 0-314 166-314 413 0 249 111 421 314 421" id="aR"/><g id="P"><use transform="matrix(0.0126953125,0,0,0.0126953125,0,0)" xlink:href="#aR"/><use transform="matrix(0.0126953125,0,0,0.0126953125,15.919921875,0)" xlink:href="#au"/><use transform="matrix(0.0126953125,0,0,0.0126953125,25.7080078125,0)" xlink:href="#al"/><use transform="matrix(0.0126953125,0,0,0.0126953125,40.3076171875,0)" xlink:href="#ao"/><use transform="matrix(0.0126953125,0,0,0.0126953125,55.6689453125,0)" xlink:href="#aA"/><use transform="matrix(0.0126953125,0,0,0.0126953125,70.5224609375,0)" xlink:href="#aO"/><use transform="matrix(0.0126953125,0,0,0.0126953125,85.896484375,0)" xlink:href="#ak"/><use transform="matrix(0.0126953125,0,0,0.0126953125,101.0546875,0)" xlink:href="#av"/><use transform="matrix(0.0126953125,0,0,0.0126953125,114.7783203125,0)" xlink:href="#aM"/></g><use transform="matrix(0.0126953125,0,0,0.0126953125,0,0)" xlink:href="#ag" id="Q"/><g id="R"><use transform="matrix(0.0126953125,0,0,0.0126953125,0,0)" xlink:href="#ax"/><use transform="matrix(0.0126953125,0,0,0.0126953125,8.251953125,0)" xlink:href="#aw"/><use transform="matrix(0.0126953125,0,0,0.0126953125,23.841796875,0)" xlink:href="#at"/></g><g id="S"><use transform="matrix(0.0126953125,0,0,0.0126953125,0,0)" xlink:href="#at"/><use transform="matrix(0.0126953125,0,0,0.0126953125,15.919921875,0)" xlink:href="#au"/><use transform="matrix(0.0126953125,0,0,0.0126953125,25.2763671875,0)" xlink:href="#ak"/><use transform="matrix(0.0126953125,0,0,0.0126953125,40.4345703125,0)" xlink:href="#aA"/></g><path d="M204-479l-12-1011h204L383-479H204zm91 492c-75 0-135-60-135-134 0-75 60-135 135-135 74 0 134 60 134 135 0 74-60 134-134 134" id="aS"/><g id="T"><use transform="matrix(0.0126953125,0,0,0.0126953125,0,0)" xlink:href="#aS"/><use transform="matrix(0.0126953125,0,0,0.0126953125,7.4775390625,0)" xlink:href="#aJ"/></g><g id="U"><use transform="matrix(0.0126953125,0,0,0.0126953125,0,0)" xlink:href="#at"/><use transform="matrix(0.0126953125,0,0,0.0126953125,15.919921875,0)" xlink:href="#au"/><use transform="matrix(0.0126953125,0,0,0.0126953125,25.2763671875,0)" xlink:href="#ak"/><use transform="matrix(0.0126953125,0,0,0.0126953125,40.4345703125,0)" xlink:href="#aA"/><use transform="matrix(0.0126953125,0,0,0.0126953125,55.2880859375,0)" xlink:href="#aH"/></g><g id="V"><use transform="matrix(0.0126953125,0,0,0.0126953125,0,0)" xlink:href="#aL"/><use transform="matrix(0.0126953125,0,0,0.0126953125,9.4833984375,0)" xlink:href="#al"/><use transform="matrix(0.0126953125,0,0,0.0126953125,24.0830078125,0)" xlink:href="#ao"/><use transform="matrix(0.0126953125,0,0,0.0126953125,39.4443359375,0)" xlink:href="#am"/></g><g id="W"><use transform="matrix(0.0126953125,0,0,0.0126953125,0,0)" xlink:href="#aS"/><use transform="matrix(0.0126953125,0,0,0.0126953125,7.4775390625,0)" xlink:href="#aJ"/></g><g id="X"><use transform="matrix(0.0126953125,0,0,0.0126953125,0,0)" xlink:href="#aK"/><use transform="matrix(0.0126953125,0,0,0.0126953125,7.794921875,0)" xlink:href="#aL"/><use transform="matrix(0.0126953125,0,0,0.0126953125,17.2783203125,0)" xlink:href="#aK"/><use transform="matrix(0.0126953125,0,0,0.0126953125,25.0732421875,0)" xlink:href="#aM"/></g><use transform="matrix(0.0126953125,0,0,0.0126953125,0,0)" xlink:href="#ag" id="Y"/><path d="M158 0v-1118h175l1 205c55-151 181-225 313-225 147 0 245 90 285 228 53-141 190-228 352-228 194 0 352 125 352 384V0h-181v-749c0-161-105-225-225-225-151 0-243 103-243 244V0H807v-767c0-124-93-207-219-207-131 0-250 92-250 270V0H158" id="aT"/><g id="Z"><use transform="matrix(0.0126953125,0,0,0.0126953125,0,0)" xlink:href="#au"/><use transform="matrix(0.0126953125,0,0,0.0126953125,9.3564453125,0)" xlink:href="#ak"/><use transform="matrix(0.0126953125,0,0,0.0126953125,24.5146484375,0)" xlink:href="#aT"/><use transform="matrix(0.0126953125,0,0,0.0126953125,47.2900390625,0)" xlink:href="#al"/><use transform="matrix(0.0126953125,0,0,0.0126953125,61.8896484375,0)" xlink:href="#aq"/><use transform="matrix(0.0126953125,0,0,0.0126953125,68.1865234375,0)" xlink:href="#ao"/><use transform="matrix(0.0126953125,0,0,0.0126953125,83.5478515625,0)" xlink:href="#aq"/><use transform="matrix(0.0126953125,0,0,0.0126953125,89.8447265625,0)" xlink:href="#ao"/><use transform="matrix(0.0126953125,0,0,0.0126953125,105.2060546875,0)" xlink:href="#aP"/></g><g id="aa"><use transform="matrix(0.0126953125,0,0,0.0126953125,0,0)" xlink:href="#aD"/><use transform="matrix(0.0126953125,0,0,0.0126953125,19.880859375,0)" xlink:href="#aE"/><use transform="matrix(0.0126953125,0,0,0.0126953125,35.2548828125,0)" xlink:href="#ax"/><use transform="matrix(0.0126953125,0,0,0.0126953125,43.7607421875,0)" xlink:href="#at"/><use transform="matrix(0.0126953125,0,0,0.0126953125,59.6806640625,0)" xlink:href="#aE"/><use transform="matrix(0.0126953125,0,0,0.0126953125,75.0546875,0)" xlink:href="#ax"/></g><use transform="matrix(0.0126953125,0,0,0.0126953125,0,0)" xlink:href="#aJ" id="ab"/><g id="ac"><use transform="matrix(0.0126953125,0,0,0.0126953125,0,0)" xlink:href="#aN"/><use transform="matrix(0.0126953125,0,0,0.0126953125,16.4658203125,0)" xlink:href="#aw"/><use transform="matrix(0.0126953125,0,0,0.0126953125,32.0556640625,0)" xlink:href="#av"/><use transform="matrix(0.0126953125,0,0,0.0126953125,45.779296875,0)" xlink:href="#ax"/><use transform="matrix(0.0126953125,0,0,0.0126953125,53.650390625,0)" xlink:href="#ap"/><use transform="matrix(0.0126953125,0,0,0.0126953125,63.2734375,0)" xlink:href="#aq"/><use transform="matrix(0.0126953125,0,0,0.0126953125,69.5703125,0)" xlink:href="#ar"/></g><path d="M645 0H180v-1490h484c435 0 692 280 692 742 0 466-257 748-711 748zM370-168h263c363 0 539-218 539-580 0-358-176-574-521-574H370v1154" id="aU"/><g id="ad"><use transform="matrix(0.0126953125,0,0,0.0126953125,0,0)" xlink:href="#as"/><use transform="matrix(0.0126953125,0,0,0.0126953125,15.6279296875,0)" xlink:href="#aQ"/><use transform="matrix(0.0126953125,0,0,0.0126953125,35.216796875,0)" xlink:href="#aU"/></g><path d="M600 0v-610L52-1490h220l295 481c50 82 90 150 130 243 40-96 80-164 128-243l294-481h219L790-610V0H600" id="aV"/><g id="ae"><use transform="matrix(0.0126953125,0,0,0.0126953125,0,0)" xlink:href="#aV"/><use transform="matrix(0.0126953125,0,0,0.0126953125,17.646484375,0)" xlink:href="#as"/><use transform="matrix(0.0126953125,0,0,0.0126953125,33.2744140625,0)" xlink:href="#ag"/></g><g id="af"><use transform="matrix(0.0126953125,0,0,0.0126953125,0,0)" xlink:href="#aQ"/><use transform="matrix(0.0126953125,0,0,0.0126953125,19.5888671875,0)" xlink:href="#aD"/></g></defs></g></svg>