<svg xmlns="http://www.w3.org/2000/svg" xmlns:xlink="http://www.w3.org/1999/xlink" xmlns:lucid="lucid" width="723.33" height="1530"><g transform="translate(-279 1)" lucid:page-tab-id="0_0"><path d="M0-500h1500v2500H0z" fill="#f2f3f5"/><path d="M721.33 84c0 46.4-36.4 84-81.33 84-44.92 0-81.33-37.6-81.33-84S595.07 0 640 0c44.92 0 81.33 37.6 81.33 84z" stroke="#000" stroke-width="2" fill="#fff"/><use xlink:href="#a" transform="matrix(1,0,0,1,563.6666666666666,5) translate(35.14501953125 88.44921875)"/><path d="M634.38 362.1a16.03 16.03 0 0 1 11.24 0l202.54 75.8a2.25 2.25 0 0 1 0 4.2l-202.54 75.8a16.03 16.03 0 0 1-11.24 0l-202.54-75.8a2.25 2.25 0 0 1 0-4.2z" stroke="#000" stroke-width="2" fill="#fff"/><use xlink:href="#b" transform="matrix(1,0,0,1,431.2222222222224,365) translate(76.846796875 84.3671875)"/><use xlink:href="#c" transform="matrix(1,0,0,1,431.2222222222224,365) translate(146.4425 84.3671875)"/><use xlink:href="#d" transform="matrix(1,0,0,1,431.2222222222224,365) translate(206.21203125 84.3671875)"/><path d="M640 170.5v172.1" stroke="#3a414a" stroke-width="3" stroke-linejoin="round" fill="none"/><path d="M640 169l1.48-.02v1.56h-2.96v-1.58z" stroke="#3a414a" stroke-width=".05" fill="#3a414a"/><path d="M640 357.08l-7.5-12.98h15z" stroke="#3a414a" stroke-width="3" fill="#3a414a"/><path d="M280 637.58a6 6 0 0 1 6-6h708a6 6 0 0 1 6 6v85.68a6 6 0 0 1-6 6H286a6 6 0 0 1-6-6z" stroke="#000" stroke-width="2" fill="#fff"/><use xlink:href="#e" transform="matrix(1,0,0,1,285,636.5838294994038) translate(182.50244140625 34.46875)"/><use xlink:href="#f" transform="matrix(1,0,0,1,285,636.5838294994038) translate(262.82568359375 34.46875)"/><use xlink:href="#g" transform="matrix(1,0,0,1,285,636.5838294994038) translate(288.02587890625 34.46875)"/><use xlink:href="#h" transform="matrix(1,0,0,1,285,636.5838294994038) translate(307.29736328125 34.46875)"/><use xlink:href="#i" transform="matrix(1,0,0,1,285,636.5838294994038) translate(398.38623046875 34.46875)"/><use xlink:href="#j" transform="matrix(1,0,0,1,285,636.5838294994038) translate(457.47021484375 34.46875)"/><use xlink:href="#k" transform="matrix(1,0,0,1,285,636.5838294994038) translate(146.5048828125 72.21953124999999)"/><use xlink:href="#l" transform="matrix(1,0,0,1,285,636.5838294994038) translate(219.337890625 72.21953124999999)"/><use xlink:href="#m" transform="matrix(1,0,0,1,285,636.5838294994038) translate(295.3701171875 72.21953124999999)"/><use xlink:href="#g" transform="matrix(1,0,0,1,285,636.5838294994038) translate(327.755859375 72.21953124999999)"/><use xlink:href="#n" transform="matrix(1,0,0,1,285,636.5838294994038) translate(347.02734375 72.21953124999999)"/><use xlink:href="#o" transform="matrix(1,0,0,1,285,636.5838294994038) translate(379.4130859375 72.21953124999999)"/><use xlink:href="#p" transform="matrix(1,0,0,1,285,636.5838294994038) translate(465.8173828125 72.21953124999999)"/><path d="M640 521.42v91.67" stroke="#3a414a" stroke-width="3" stroke-linejoin="round" fill="none"/><path d="M638.78 519.87l1.22.04 1.22-.03.25-.03v1.62h-2.95v-1.62z" stroke="#3a414a" stroke-width=".05" fill="#3a414a"/><path d="M640 627.58l-7.5-13h15z" stroke="#3a414a" stroke-width="3" fill="#3a414a"/><path d="M281.33 871.06a6 6 0 0 1 6-6h708a6 6 0 0 1 6 6V978.2a6 6 0 0 1-6 6h-708a6 6 0 0 1-6-6z" stroke="#000" stroke-width="2" fill="#fff"/><use xlink:href="#q" transform="matrix(1,0,0,1,286.33333333333337,870.0560194351319) translate(166.271484375 45.3828125)"/><use xlink:href="#r" transform="matrix(1,0,0,1,286.33333333333337,870.0560194351319) translate(239.2822265625 45.3828125)"/><use xlink:href="#g" transform="matrix(1,0,0,1,286.33333333333337,870.0560194351319) translate(262.451171875 45.3828125)"/><use xlink:href="#s" transform="matrix(1,0,0,1,286.33333333333337,870.0560194351319) translate(281.72265625 45.3828125)"/><use xlink:href="#t" transform="matrix(1,0,0,1,286.33333333333337,870.0560194351319) translate(359.849609375 45.3828125)"/><use xlink:href="#u" transform="matrix(1,0,0,1,286.33333333333337,870.0560194351319) translate(450.92578125 45.3828125)"/><use xlink:href="#v" transform="matrix(1,0,0,1,286.33333333333337,870.0560194351319) translate(10.0048828125 83.13359374999999)"/><use xlink:href="#w" transform="matrix(1,0,0,1,286.33333333333337,870.0560194351319) translate(57.8408203125 83.13359374999999)"/><use xlink:href="#x" transform="matrix(1,0,0,1,286.33333333333337,870.0560194351319) translate(236.6796875 83.13359374999999)"/><use xlink:href="#y" transform="matrix(1,0,0,1,286.33333333333337,870.0560194351319) translate(274.943359375 83.13359374999999)"/><use xlink:href="#z" transform="matrix(1,0,0,1,286.33333333333337,870.0560194351319) translate(321.2939453125 83.13359374999999)"/><use xlink:href="#A" transform="matrix(1,0,0,1,286.33333333333337,870.0560194351319) translate(436.4658203125 83.13359374999999)"/><use xlink:href="#g" transform="matrix(1,0,0,1,286.33333333333337,870.0560194351319) translate(521.1181640625 83.13359374999999)"/><use xlink:href="#B" transform="matrix(1,0,0,1,286.33333333333337,870.0560194351319) translate(540.3896484375 83.13359374999999)"/><use xlink:href="#C" transform="matrix(1,0,0,1,286.33333333333337,870.0560194351319) translate(587.3115234375 83.13359374999999)"/><path d="M280 1126a6 6 0 0 1 6-6h708a6 6 0 0 1 6 6v68a6 6 0 0 1-6 6H286a6 6 0 0 1-6-6z" stroke="#000" stroke-width="2" fill="#fff"/><g><use xlink:href="#q" transform="matrix(1,0,0,1,285,1125) translate(187.70751953125 25.4609375)"/><use xlink:href="#D" transform="matrix(1,0,0,1,285,1125) translate(260.71826171875 25.4609375)"/><use xlink:href="#g" transform="matrix(1,0,0,1,285,1125) translate(284.09033203125 25.4609375)"/><use xlink:href="#E" transform="matrix(1,0,0,1,285,1125) translate(303.36181640625 25.4609375)"/><use xlink:href="#F" transform="matrix(1,0,0,1,285,1125) translate(409.60888671875 25.4609375)"/><use xlink:href="#G" transform="matrix(1,0,0,1,285,1125) translate(150.70703125 63.211718749999996)"/><use xlink:href="#H" transform="matrix(1,0,0,1,285,1125) translate(197.0576171875 63.211718749999996)"/><use xlink:href="#I" transform="matrix(1,0,0,1,285,1125) translate(273.166015625 63.211718749999996)"/><use xlink:href="#y" transform="matrix(1,0,0,1,285,1125) translate(300.4990234375 63.211718749999996)"/><use xlink:href="#J" transform="matrix(1,0,0,1,285,1125) translate(346.849609375 63.211718749999996)"/><use xlink:href="#K" transform="matrix(1,0,0,1,285,1125) translate(425.3955078125 63.211718749999996)"/></g><path d="M721.33 1444c0 46.4-36.4 84-81.33 84-44.92 0-81.33-37.6-81.33-84s36.4-84 81.33-84c44.92 0 81.33 37.6 81.33 84z" stroke="#000" stroke-width="2" fill="#fff"/><g><use xlink:href="#L" transform="matrix(1,0,0,1,563.6666666666666,1365) translate(49.509765625 88.44921875)"/></g><path d="M640 731.77l1.16 114.8" stroke="#3a414a" stroke-width="3" stroke-linejoin="round" fill="none"/><path d="M641.5 731.8l-2.96.02v-1.56h2.94z" stroke="#3a414a" stroke-width=".05" fill="#3a414a"/><path d="M641.3 861.06l-7.63-12.92 15-.15z" stroke="#3a414a" stroke-width="3" fill="#3a414a"/><path d="M641.32 986.7l-1.15 114.8" stroke="#3a414a" stroke-width="3" stroke-linejoin="round" fill="none"/><path d="M642.8 986.76l-2.96-.03.02-1.52h2.95z" stroke="#3a414a" stroke-width=".05" fill="#3a414a"/><path d="M640.03 1116l-7.37-13.06 15 .14z" stroke="#3a414a" stroke-width="3" fill="#3a414a"/><path d="M640 1202.5v139" stroke="#3a414a" stroke-width="3" stroke-linejoin="round" fill="none"/><path d="M641.48 1202.54h-2.96V1201h2.96z" stroke="#3a414a" stroke-width=".05" fill="#3a414a"/><path d="M640 1356l-7.5-13h15z" stroke="#3a414a" stroke-width="3" fill="#3a414a"/><defs><path d="M657 26c-323 0-524-166-541-416h195c15 169 171 246 346 246 202 0 356-106 356-265 5-203-294-238-475-293-239-73-380-191-380-389 0-252 224-419 512-419 294 0 499 171 508 396H992c-17-145-151-228-328-228-193 0-321 102-321 242 0 156 175 211 284 241l149 41c160 44 422 134 422 412 0 244-197 432-541 432" id="M"/><path d="M98-1322v-168h1126v168H757V0H567v-1322H98" id="N"/><path d="M52 0l541-1490h220L1361 0h-200l-149-416H398L254 0H52zm404-582h497c-103-290-145-390-251-756-108 377-145 460-246 756" id="O"/><path d="M180 0v-1490h510c348 0 508 194 508 460 0 198-88 351-276 417L1256 0h-220L726-579c-117 2-238 0-356 1V0H180zm190-747h312c235 0 327-108 327-283 0-177-92-293-329-293H370v576" id="P"/><g id="a"><use transform="matrix(0.0126953125,0,0,0.0126953125,0,0)" xlink:href="#M"/><use transform="matrix(0.0126953125,0,0,0.0126953125,16.681640625,0)" xlink:href="#N"/><use transform="matrix(0.0126953125,0,0,0.0126953125,31.255859375,0)" xlink:href="#O"/><use transform="matrix(0.0126953125,0,0,0.0126953125,49.1943359375,0)" xlink:href="#P"/><use transform="matrix(0.0126953125,0,0,0.0126953125,65.9267578125,0)" xlink:href="#N"/></g><path d="M628 24c-324 0-524-230-524-574 0-343 198-582 503-582 237 0 487 146 487 559v75H286c9 234 145 362 343 362 132 0 231-58 273-172l174 48C1024-91 857 24 628 24zM287-650h624c-17-190-120-322-304-322-192 0-309 151-320 322" id="Q"/><path d="M471 26C259 26 90-98 90-318c0-256 228-303 435-329 202-27 287-16 287-108 0-139-79-219-234-219-161 0-248 86-283 164l-173-57c86-203 278-265 451-265 150 0 419 46 419 395V0H815v-152h-12C765-73 660 26 471 26zm31-159c199 0 310-134 310-271v-155c-30 35-226 55-295 64-131 17-246 59-246 186 0 116 97 176 231 176" id="R"/><path d="M577 24c-279 0-473-224-473-580 0-354 195-576 474-576 218 0 287 134 324 193h14v-551h180V0H922v-173h-20C865-111 790 24 577 24zm27-161c203 0 314-172 314-421 0-247-108-413-314-413-212 0-317 181-317 413 0 235 108 421 317 421" id="S"/><g id="b"><use transform="matrix(0.0126953125,0,0,0.0126953125,0,0)" xlink:href="#P"/><use transform="matrix(0.0126953125,0,0,0.0126953125,16.3515625,0)" xlink:href="#Q"/><use transform="matrix(0.0126953125,0,0,0.0126953125,31.763671875,0)" xlink:href="#R"/><use transform="matrix(0.0126953125,0,0,0.0126953125,46.36328125,0)" xlink:href="#S"/></g><path d="M370-1490V0H180v-1490h190" id="T"/><path d="M338-670V0H158v-1118h173l1 207c72-158 192-221 342-221 226 0 378 139 378 422V0H872v-695c0-172-96-275-252-275-161 0-282 109-282 300" id="U"/><path d="M678-1118v154H420V0H240v-964H20v-154h220v-149c0-194 155-293 318-293 85 0 141 18 168 30l-50 154c-19-6-47-17-97-17-111 0-159 58-159 166v109h258" id="V"/><path d="M158 0v-1118h180V0H158zm91-1301c-68 0-125-53-125-119s57-119 125-119c69 0 126 53 126 119s-57 119-126 119" id="W"/><path d="M65 0l393-574-370-544h210c88 136 192 297 267 435 67-142 176-302 264-435h206L661-564 1053 0H844c-94-144-206-310-287-458C484-308 366-142 273 0H65" id="X"/><g id="c"><use transform="matrix(0.0126953125,0,0,0.0126953125,0,0)" xlink:href="#T"/><use transform="matrix(0.0126953125,0,0,0.0126953125,6.982421875,0)" xlink:href="#U"/><use transform="matrix(0.0126953125,0,0,0.0126953125,22.34375,0)" xlink:href="#V"/><use transform="matrix(0.0126953125,0,0,0.0126953125,31.966796875,0)" xlink:href="#W"/><use transform="matrix(0.0126953125,0,0,0.0126953125,38.263671875,0)" xlink:href="#X"/></g><path d="M180 0v-1490h908v168H370v486h669v168H370v500h727V0H180" id="Y"/><path d="M158 418v-1536h174v179h20c37-59 106-193 324-193 279 0 474 222 474 576 0 356-194 580-473 580-213 0-288-135-325-197h-14v591H158zm492-555c209 0 317-186 317-421 0-232-105-413-317-413-206 0-314 166-314 413 0 249 111 421 314 421" id="Z"/><path d="M158 0v-1118h174v172h12c41-113 157-188 290-188 26 0 70 2 91 3v181c-11-2-60-10-108-10-161 0-279 109-279 260V0H158" id="aa"/><path d="M538 24C308 24 148-78 108-271l171-41c32 123 123 178 257 178 156 0 256-77 256-169 0-77-54-128-164-154l-186-44c-203-48-300-148-300-305 0-192 176-326 414-326 230 0 351 112 402 269l-163 42c-31-80-94-158-238-158-133 0-233 69-233 162 0 83 57 129 188 160l169 40c203 48 298 149 298 302 0 196-179 339-441 339" id="ab"/><path d="M613 24c-304 0-509-231-509-576 0-350 205-580 509-580 305 0 511 230 511 580 0 345-206 576-511 576zm0-161c226 0 329-195 329-415 0-222-103-419-329-419-223 0-326 196-326 419 0 220 103 415 326 415" id="ac"/><g id="d"><use transform="matrix(0.0126953125,0,0,0.0126953125,0,0)" xlink:href="#Y"/><use transform="matrix(0.0126953125,0,0,0.0126953125,15.6279296875,0)" xlink:href="#X"/><use transform="matrix(0.0126953125,0,0,0.0126953125,29.8212890625,0)" xlink:href="#Z"/><use transform="matrix(0.0126953125,0,0,0.0126953125,45.7412109375,0)" xlink:href="#aa"/><use transform="matrix(0.0126953125,0,0,0.0126953125,55.09765625,0)" xlink:href="#Q"/><use transform="matrix(0.0126953125,0,0,0.0126953125,70.255859375,0)" xlink:href="#ab"/><use transform="matrix(0.0126953125,0,0,0.0126953125,83.9794921875,0)" xlink:href="#ab"/><use transform="matrix(0.0126953125,0,0,0.0126953125,97.703125,0)" xlink:href="#W"/><use transform="matrix(0.0126953125,0,0,0.0126953125,104,0)" xlink:href="#ac"/><use transform="matrix(0.0126953125,0,0,0.0126953125,119.58984375,0)" xlink:href="#U"/></g><path d="M180 0v-1490h510c348 0 508 209 508 474 0 266-160 477-507 477H370V0H180zm190-706h312c236 0 327-133 327-310 0-176-91-307-329-307H370v617" id="ad"/><g id="e"><use transform="matrix(0.0126953125,0,0,0.0126953125,0,0)" xlink:href="#M"/><use transform="matrix(0.0126953125,0,0,0.0126953125,16.681640625,0)" xlink:href="#N"/><use transform="matrix(0.0126953125,0,0,0.0126953125,33.46484375,0)" xlink:href="#Y"/><use transform="matrix(0.0126953125,0,0,0.0126953125,49.0927734375,0)" xlink:href="#ad"/></g><path d="M653-1490V0H466v-1314h-10L96-1047v-204l324-239h233" id="ae"/><use transform="matrix(0.0126953125,0,0,0.0126953125,0,0)" xlink:href="#ae" id="f"/><path d="M798-719v166H144v-166h654" id="af"/><use transform="matrix(0.0126953125,0,0,0.0126953125,0,0)" xlink:href="#af" id="g"/><path d="M481 0L54-1118h197c107 314 236 620 325 951 87-331 217-637 324-951h197L670 0H481" id="ag"/><g id="h"><use transform="matrix(0.0126953125,0,0,0.0126953125,0,0)" xlink:href="#P"/><use transform="matrix(0.0126953125,0,0,0.0126953125,16.3515625,0)" xlink:href="#Q"/><use transform="matrix(0.0126953125,0,0,0.0126953125,31.001953125,0)" xlink:href="#ag"/><use transform="matrix(0.0126953125,0,0,0.0126953125,45.1064453125,0)" xlink:href="#Q"/><use transform="matrix(0.0126953125,0,0,0.0126953125,60.2646484375,0)" xlink:href="#aa"/><use transform="matrix(0.0126953125,0,0,0.0126953125,70.052734375,0)" xlink:href="#ab"/></g><g id="i"><use transform="matrix(0.0126953125,0,0,0.0126953125,0,0)" xlink:href="#W"/><use transform="matrix(0.0126953125,0,0,0.0126953125,6.296875,0)" xlink:href="#U"/><use transform="matrix(0.0126953125,0,0,0.0126953125,21.658203125,0)" xlink:href="#V"/><use transform="matrix(0.0126953125,0,0,0.0126953125,31.28125,0)" xlink:href="#W"/><use transform="matrix(0.0126953125,0,0,0.0126953125,37.578125,0)" xlink:href="#X"/></g><path d="M598-1118v154H368v674c0 100 37 144 132 144 23 0 62-6 92-12L629-6c-37 13-88 20-134 20-193 0-307-107-307-290v-688H20v-154h168v-266h180v266h230" id="ah"/><path d="M611 442c-248 0-391-105-460-228l146-94c47 65 117 165 314 165 178 0 307-82 307-266v-224h-17C863-141 792-18 576-18c-268 0-472-195-472-546 0-346 197-568 476-568 216 0 288 133 326 193h17v-179h175V29c0 289-215 413-487 413zm-5-620c203 0 314-146 314-390 0-237-108-403-314-403-213 0-319 180-319 403 0 230 109 390 319 390" id="ai"/><g id="j"><use transform="matrix(0.0126953125,0,0,0.0126953125,0,0)" xlink:href="#ab"/><use transform="matrix(0.0126953125,0,0,0.0126953125,13.7236328125,0)" xlink:href="#ah"/><use transform="matrix(0.0126953125,0,0,0.0126953125,22.2294921875,0)" xlink:href="#aa"/><use transform="matrix(0.0126953125,0,0,0.0126953125,32.423828125,0)" xlink:href="#W"/><use transform="matrix(0.0126953125,0,0,0.0126953125,38.720703125,0)" xlink:href="#U"/><use transform="matrix(0.0126953125,0,0,0.0126953125,54.08203125,0)" xlink:href="#ai"/></g><path d="M409 0L70-1118h191c89 329 165 560 243 925 75-353 154-601 240-925h192c85 325 161 564 235 922 77-354 157-598 244-922h191L1267 0h-179c-86-307-176-590-250-913C763-588 675-308 588 0H409" id="aj"/><g id="k"><use transform="matrix(0.0126953125,0,0,0.0126953125,0,0)" xlink:href="#ab"/><use transform="matrix(0.0126953125,0,0,0.0126953125,13.7236328125,0)" xlink:href="#aj"/><use transform="matrix(0.0126953125,0,0,0.0126953125,35.0009765625,0)" xlink:href="#R"/><use transform="matrix(0.0126953125,0,0,0.0126953125,49.6005859375,0)" xlink:href="#Z"/></g><path d="M140 405l46-156c120 36 205 19 263-150l32-93L54-1118h197c107 313 237 620 324 950 87-331 219-637 326-950h196L606 167c-68 178-176 259-334 259-64 0-113-12-132-21" id="ak"/><g id="l"><use transform="matrix(0.0126953125,0,0,0.0126953125,0,0)" xlink:href="#Q"/><use transform="matrix(0.0126953125,0,0,0.0126953125,14.650390625,0)" xlink:href="#ag"/><use transform="matrix(0.0126953125,0,0,0.0126953125,28.7548828125,0)" xlink:href="#Q"/><use transform="matrix(0.0126953125,0,0,0.0126953125,43.9130859375,0)" xlink:href="#aa"/><use transform="matrix(0.0126953125,0,0,0.0126953125,54.107421875,0)" xlink:href="#ak"/></g><path d="M232-923l-22-567h194l-22 567H232" id="al"/><path d="M218-607c0-325 108-727 258-974h175c-155 315-250 682-250 974 0 265 78 531 250 886H476C306-10 218-315 218-607" id="am"/><g id="m"><use transform="matrix(0.0126953125,0,0,0.0126953125,0,0)" xlink:href="#al"/><use transform="matrix(0.0126953125,0,0,0.0126953125,7.794921875,0)" xlink:href="#am"/><use transform="matrix(0.0126953125,0,0,0.0126953125,17.2783203125,0)" xlink:href="#al"/></g><path d="M96 279C273-86 346-350 346-607c0-292-95-659-250-974h175c150 246 258 650 258 974 0 297-91 602-258 886H96" id="an"/><g id="n"><use transform="matrix(0.0126953125,0,0,0.0126953125,0,0)" xlink:href="#al"/><use transform="matrix(0.0126953125,0,0,0.0126953125,7.794921875,0)" xlink:href="#an"/><use transform="matrix(0.0126953125,0,0,0.0126953125,17.2783203125,0)" xlink:href="#al"/></g><path d="M537 14c-226 0-379-139-379-422v-710h180v695c0 172 97 275 253 275 160 0 281-109 281-300v-670h181V0H879v-209C806-46 684 14 537 14" id="ao"/><g id="o"><use transform="matrix(0.0126953125,0,0,0.0126953125,0,0)" xlink:href="#S"/><use transform="matrix(0.0126953125,0,0,0.0126953125,15.919921875,0)" xlink:href="#ao"/><use transform="matrix(0.0126953125,0,0,0.0126953125,31.2939453125,0)" xlink:href="#aa"/><use transform="matrix(0.0126953125,0,0,0.0126953125,41.48828125,0)" xlink:href="#W"/><use transform="matrix(0.0126953125,0,0,0.0126953125,47.78515625,0)" xlink:href="#U"/><use transform="matrix(0.0126953125,0,0,0.0126953125,63.146484375,0)" xlink:href="#ai"/></g><path d="M338-1490V0H158v-1490h180" id="ap"/><g id="p"><use transform="matrix(0.0126953125,0,0,0.0126953125,0,0)" xlink:href="#aa"/><use transform="matrix(0.0126953125,0,0,0.0126953125,9.3564453125,0)" xlink:href="#Q"/><use transform="matrix(0.0126953125,0,0,0.0126953125,24.0068359375,0)" xlink:href="#ag"/><use transform="matrix(0.0126953125,0,0,0.0126953125,38.111328125,0)" xlink:href="#Q"/><use transform="matrix(0.0126953125,0,0,0.0126953125,53.26953125,0)" xlink:href="#aa"/><use transform="matrix(0.0126953125,0,0,0.0126953125,63.0576171875,0)" xlink:href="#ab"/><use transform="matrix(0.0126953125,0,0,0.0126953125,76.78125,0)" xlink:href="#R"/><use transform="matrix(0.0126953125,0,0,0.0126953125,91.380859375,0)" xlink:href="#ap"/></g><g id="q"><use transform="matrix(0.0126953125,0,0,0.0126953125,0,0)" xlink:href="#M"/><use transform="matrix(0.0126953125,0,0,0.0126953125,16.681640625,0)" xlink:href="#N"/><use transform="matrix(0.0126953125,0,0,0.0126953125,33.46484375,0)" xlink:href="#Y"/><use transform="matrix(0.0126953125,0,0,0.0126953125,49.0927734375,0)" xlink:href="#ad"/></g><path d="M154 0v-137l495-537c165-179 249-281 249-418 0-156-121-253-280-253-170 0-278 110-278 278H158c0-264 200-443 465-443 266 0 455 183 455 416 0 161-73 288-336 568L416-179v12h687V0H154" id="aq"/><use transform="matrix(0.0126953125,0,0,0.0126953125,0,0)" xlink:href="#aq" id="r"/><g id="s"><use transform="matrix(0.0126953125,0,0,0.0126953125,0,0)" xlink:href="#O"/><use transform="matrix(0.0126953125,0,0,0.0126953125,17.9384765625,0)" xlink:href="#Z"/><use transform="matrix(0.0126953125,0,0,0.0126953125,33.8583984375,0)" xlink:href="#Z"/><use transform="matrix(0.0126953125,0,0,0.0126953125,49.7783203125,0)" xlink:href="#ap"/><use transform="matrix(0.0126953125,0,0,0.0126953125,56.2021484375,0)" xlink:href="#ak"/></g><g id="t"><use transform="matrix(0.0126953125,0,0,0.0126953125,0,0)" xlink:href="#ad"/><use transform="matrix(0.0126953125,0,0,0.0126953125,16.4658203125,0)" xlink:href="#ac"/><use transform="matrix(0.0126953125,0,0,0.0126953125,32.0556640625,0)" xlink:href="#ab"/><use transform="matrix(0.0126953125,0,0,0.0126953125,45.779296875,0)" xlink:href="#ah"/><use transform="matrix(0.0126953125,0,0,0.0126953125,53.650390625,0)" xlink:href="#V"/><use transform="matrix(0.0126953125,0,0,0.0126953125,63.2734375,0)" xlink:href="#W"/><use transform="matrix(0.0126953125,0,0,0.0126953125,69.5703125,0)" xlink:href="#X"/></g><path d="M338-670V0H158v-1490h180v566c73-149 190-208 336-208 226 0 379 139 379 422V0H872v-695c0-172-96-275-252-275-161 0-282 109-282 300" id="ar"/><g id="u"><use transform="matrix(0.0126953125,0,0,0.0126953125,0,0)" xlink:href="#R"/><use transform="matrix(0.0126953125,0,0,0.0126953125,14.599609375,0)" xlink:href="#ap"/><use transform="matrix(0.0126953125,0,0,0.0126953125,20.896484375,0)" xlink:href="#ai"/><use transform="matrix(0.0126953125,0,0,0.0126953125,36.841796875,0)" xlink:href="#ac"/><use transform="matrix(0.0126953125,0,0,0.0126953125,52.431640625,0)" xlink:href="#aa"/><use transform="matrix(0.0126953125,0,0,0.0126953125,62.6259765625,0)" xlink:href="#W"/><use transform="matrix(0.0126953125,0,0,0.0126953125,68.9228515625,0)" xlink:href="#ah"/><use transform="matrix(0.0126953125,0,0,0.0126953125,77.4287109375,0)" xlink:href="#ar"/></g><g id="v"><use transform="matrix(0.0126953125,0,0,0.0126953125,0,0)" xlink:href="#aa"/><use transform="matrix(0.0126953125,0,0,0.0126953125,9.7880859375,0)" xlink:href="#ao"/><use transform="matrix(0.0126953125,0,0,0.0126953125,25.162109375,0)" xlink:href="#U"/></g><path d="M600 0v-610L52-1490h220l295 481c50 82 90 150 130 243 40-96 80-164 128-243l294-481h219L790-610V0H600" id="as"/><g id="w"><use transform="matrix(0.0126953125,0,0,0.0126953125,0,0)" xlink:href="#ab"/><use transform="matrix(0.0126953125,0,0,0.0126953125,13.7236328125,0)" xlink:href="#ar"/><use transform="matrix(0.0126953125,0,0,0.0126953125,29.09765625,0)" xlink:href="#ao"/><use transform="matrix(0.0126953125,0,0,0.0126953125,44.4716796875,0)" xlink:href="#U"/><use transform="matrix(0.0126953125,0,0,0.0126953125,59.8330078125,0)" xlink:href="#ah"/><use transform="matrix(0.0126953125,0,0,0.0126953125,68.3388671875,0)" xlink:href="#W"/><use transform="matrix(0.0126953125,0,0,0.0126953125,74.6357421875,0)" xlink:href="#U"/><use transform="matrix(0.0126953125,0,0,0.0126953125,89.9970703125,0)" xlink:href="#ai"/><use transform="matrix(0.0126953125,0,0,0.0126953125,105.9423828125,0)" xlink:href="#af"/><use transform="matrix(0.0126953125,0,0,0.0126953125,115.8447265625,0)" xlink:href="#as"/><use transform="matrix(0.0126953125,0,0,0.0126953125,131.650390625,0)" xlink:href="#R"/><use transform="matrix(0.0126953125,0,0,0.0126953125,146.25,0)" xlink:href="#aa"/><use transform="matrix(0.0126953125,0,0,0.0126953125,155.6064453125,0)" xlink:href="#S"/></g><g id="x"><use transform="matrix(0.0126953125,0,0,0.0126953125,0,0)" xlink:href="#ac"/><use transform="matrix(0.0126953125,0,0,0.0126953125,15.58984375,0)" xlink:href="#U"/></g><g id="y"><use transform="matrix(0.0126953125,0,0,0.0126953125,0,0)" xlink:href="#ah"/><use transform="matrix(0.0126953125,0,0,0.0126953125,8.505859375,0)" xlink:href="#ar"/><use transform="matrix(0.0126953125,0,0,0.0126953125,23.8798828125,0)" xlink:href="#Q"/></g><g id="z"><use transform="matrix(0.0126953125,0,0,0.0126953125,0,0)" xlink:href="#aa"/><use transform="matrix(0.0126953125,0,0,0.0126953125,9.3564453125,0)" xlink:href="#Q"/><use transform="matrix(0.0126953125,0,0,0.0126953125,24.0068359375,0)" xlink:href="#ag"/><use transform="matrix(0.0126953125,0,0,0.0126953125,38.111328125,0)" xlink:href="#Q"/><use transform="matrix(0.0126953125,0,0,0.0126953125,53.26953125,0)" xlink:href="#aa"/><use transform="matrix(0.0126953125,0,0,0.0126953125,63.0576171875,0)" xlink:href="#ab"/><use transform="matrix(0.0126953125,0,0,0.0126953125,76.78125,0)" xlink:href="#Q"/><use transform="matrix(0.0126953125,0,0,0.0126953125,91.939453125,0)" xlink:href="#S"/></g><g id="A"><use transform="matrix(0.0126953125,0,0,0.0126953125,0,0)" xlink:href="#ab"/><use transform="matrix(0.0126953125,0,0,0.0126953125,13.7236328125,0)" xlink:href="#ah"/><use transform="matrix(0.0126953125,0,0,0.0126953125,22.2294921875,0)" xlink:href="#aa"/><use transform="matrix(0.0126953125,0,0,0.0126953125,32.423828125,0)" xlink:href="#W"/><use transform="matrix(0.0126953125,0,0,0.0126953125,38.720703125,0)" xlink:href="#U"/><use transform="matrix(0.0126953125,0,0,0.0126953125,54.08203125,0)" xlink:href="#ai"/></g><g id="B"><use transform="matrix(0.0126953125,0,0,0.0126953125,0,0)" xlink:href="#ai"/><use transform="matrix(0.0126953125,0,0,0.0126953125,15.9453125,0)" xlink:href="#Q"/><use transform="matrix(0.0126953125,0,0,0.0126953125,31.103515625,0)" xlink:href="#ah"/></g><path d="M934 0v166H0V0h934" id="at"/><g id="C"><use transform="matrix(0.0126953125,0,0,0.0126953125,0,0)" xlink:href="#P"/><use transform="matrix(0.0126953125,0,0,0.0126953125,16.732421875,0)" xlink:href="#at"/><use transform="matrix(0.0126953125,0,0,0.0126953125,29.4658203125,0)" xlink:href="#Z"/><use transform="matrix(0.0126953125,0,0,0.0126953125,45.3857421875,0)" xlink:href="#ac"/><use transform="matrix(0.0126953125,0,0,0.0126953125,60.9755859375,0)" xlink:href="#ab"/><use transform="matrix(0.0126953125,0,0,0.0126953125,74.69921875,0)" xlink:href="#ah"/><use transform="matrix(0.0126953125,0,0,0.0126953125,82.5703125,0)" xlink:href="#V"/><use transform="matrix(0.0126953125,0,0,0.0126953125,92.193359375,0)" xlink:href="#W"/><use transform="matrix(0.0126953125,0,0,0.0126953125,98.490234375,0)" xlink:href="#X"/></g><path d="M635 20c-292 0-500-160-510-396h192c11 142 145 229 315 229 187 0 323-105 323-260 0-161-125-274-346-274H488v-165h121c174 0 294-100 294-254 0-148-104-245-266-245-152 0-291 85-297 230H157c8-234 222-395 484-395 278 0 448 188 448 400 0 168-95 291-247 336v12c190 31 301 169 301 357 0 244-216 425-508 425" id="au"/><use transform="matrix(0.0126953125,0,0,0.0126953125,0,0)" xlink:href="#au" id="D"/><g id="E"><use transform="matrix(0.0126953125,0,0,0.0126953125,0,0)" xlink:href="#P"/><use transform="matrix(0.0126953125,0,0,0.0126953125,16.3515625,0)" xlink:href="#Q"/><use transform="matrix(0.0126953125,0,0,0.0126953125,31.001953125,0)" xlink:href="#ag"/><use transform="matrix(0.0126953125,0,0,0.0126953125,45.1064453125,0)" xlink:href="#Q"/><use transform="matrix(0.0126953125,0,0,0.0126953125,60.2646484375,0)" xlink:href="#aa"/><use transform="matrix(0.0126953125,0,0,0.0126953125,70.052734375,0)" xlink:href="#ab"/><use transform="matrix(0.0126953125,0,0,0.0126953125,83.7763671875,0)" xlink:href="#Q"/></g><g id="F"><use transform="matrix(0.0126953125,0,0,0.0126953125,0,0)" xlink:href="#P"/><use transform="matrix(0.0126953125,0,0,0.0126953125,16.732421875,0)" xlink:href="#at"/><use transform="matrix(0.0126953125,0,0,0.0126953125,29.4658203125,0)" xlink:href="#Z"/><use transform="matrix(0.0126953125,0,0,0.0126953125,45.3857421875,0)" xlink:href="#ac"/><use transform="matrix(0.0126953125,0,0,0.0126953125,60.9755859375,0)" xlink:href="#ab"/><use transform="matrix(0.0126953125,0,0,0.0126953125,74.69921875,0)" xlink:href="#ah"/><use transform="matrix(0.0126953125,0,0,0.0126953125,82.5703125,0)" xlink:href="#V"/><use transform="matrix(0.0126953125,0,0,0.0126953125,92.193359375,0)" xlink:href="#W"/><use transform="matrix(0.0126953125,0,0,0.0126953125,98.490234375,0)" xlink:href="#X"/></g><g id="G"><use transform="matrix(0.0126953125,0,0,0.0126953125,0,0)" xlink:href="#ah"/><use transform="matrix(0.0126953125,0,0,0.0126953125,8.505859375,0)" xlink:href="#ar"/><use transform="matrix(0.0126953125,0,0,0.0126953125,23.8798828125,0)" xlink:href="#Q"/></g><g id="H"><use transform="matrix(0.0126953125,0,0,0.0126953125,0,0)" xlink:href="#aa"/><use transform="matrix(0.0126953125,0,0,0.0126953125,9.3564453125,0)" xlink:href="#Q"/><use transform="matrix(0.0126953125,0,0,0.0126953125,24.5146484375,0)" xlink:href="#ab"/><use transform="matrix(0.0126953125,0,0,0.0126953125,38.23828125,0)" xlink:href="#ao"/><use transform="matrix(0.0126953125,0,0,0.0126953125,53.6123046875,0)" xlink:href="#ap"/><use transform="matrix(0.0126953125,0,0,0.0126953125,60.2900390625,0)" xlink:href="#ah"/></g><g id="I"><use transform="matrix(0.0126953125,0,0,0.0126953125,0,0)" xlink:href="#W"/><use transform="matrix(0.0126953125,0,0,0.0126953125,6.296875,0)" xlink:href="#ab"/></g><g id="J"><use transform="matrix(0.0126953125,0,0,0.0126953125,0,0)" xlink:href="#ad"/><use transform="matrix(0.0126953125,0,0,0.0126953125,16.60546875,0)" xlink:href="#aa"/><use transform="matrix(0.0126953125,0,0,0.0126953125,25.9619140625,0)" xlink:href="#Q"/><use transform="matrix(0.0126953125,0,0,0.0126953125,41.1201171875,0)" xlink:href="#V"/><use transform="matrix(0.0126953125,0,0,0.0126953125,50.7431640625,0)" xlink:href="#W"/><use transform="matrix(0.0126953125,0,0,0.0126953125,57.0400390625,0)" xlink:href="#X"/></g><g id="K"><use transform="matrix(0.0126953125,0,0,0.0126953125,0,0)" xlink:href="#Q"/><use transform="matrix(0.0126953125,0,0,0.0126953125,14.57421875,0)" xlink:href="#X"/><use transform="matrix(0.0126953125,0,0,0.0126953125,28.767578125,0)" xlink:href="#Z"/><use transform="matrix(0.0126953125,0,0,0.0126953125,44.6875,0)" xlink:href="#aa"/><use transform="matrix(0.0126953125,0,0,0.0126953125,54.0439453125,0)" xlink:href="#Q"/><use transform="matrix(0.0126953125,0,0,0.0126953125,69.2021484375,0)" xlink:href="#ab"/><use transform="matrix(0.0126953125,0,0,0.0126953125,82.92578125,0)" xlink:href="#ab"/><use transform="matrix(0.0126953125,0,0,0.0126953125,96.6494140625,0)" xlink:href="#W"/><use transform="matrix(0.0126953125,0,0,0.0126953125,102.9462890625,0)" xlink:href="#ac"/><use transform="matrix(0.0126953125,0,0,0.0126953125,118.5361328125,0)" xlink:href="#U"/></g><path d="M180 0v-1490h224l606 953c40 63 108 177 176 312-27-437-7-821-13-1265h190V0h-226C860-448 622-778 356-1262c27 476 11 792 15 1262H180" id="av"/><path d="M645 0H180v-1490h484c435 0 692 280 692 742 0 466-257 748-711 748zM370-168h263c363 0 539-218 539-580 0-358-176-574-521-574H370v1154" id="aw"/><g id="L"><use transform="matrix(0.0126953125,0,0,0.0126953125,0,0)" xlink:href="#Y"/><use transform="matrix(0.0126953125,0,0,0.0126953125,15.6279296875,0)" xlink:href="#av"/><use transform="matrix(0.0126953125,0,0,0.0126953125,35.216796875,0)" xlink:href="#aw"/></g></defs></g></svg>